<?xml version="1.0" encoding="UTF-8" standalone="no"?>
<!-- Created with Inkscape (http://www.inkscape.org/) -->

<svg
   xmlns:ns1="http://www.iki.fi/pav/software/textext/"
   xmlns:dc="http://purl.org/dc/elements/1.1/"
   xmlns:cc="http://creativecommons.org/ns#"
   xmlns:rdf="http://www.w3.org/1999/02/22-rdf-syntax-ns#"
   xmlns:svg="http://www.w3.org/2000/svg"
   xmlns="http://www.w3.org/2000/svg"
   xmlns:sodipodi="http://sodipodi.sourceforge.net/DTD/sodipodi-0.dtd"
   xmlns:inkscape="http://www.inkscape.org/namespaces/inkscape"
   width="36.815655mm"
   height="63.218296mm"
   viewBox="0 0 36.815654 63.218296"
   version="1.1"
   id="svg120"
   inkscape:version="0.92.2 5c3e80d, 2017-08-06"
   sodipodi:docname="ex-precontrainte-efforts.svg">
  <sodipodi:namedview
     id="base"
     pagecolor="#ffffff"
     bordercolor="#666666"
     borderopacity="1.0"
     inkscape:pageopacity="0.0"
     inkscape:pageshadow="2"
     inkscape:zoom="2.27"
     inkscape:cx="143.1889"
     inkscape:cy="105.25984"
     inkscape:document-units="mm"
     inkscape:current-layer="layer1"
     showgrid="false"
     inkscape:snap-smooth-nodes="true"
     fit-margin-top="0"
     fit-margin-left="0"
     fit-margin-right="0"
     fit-margin-bottom="0"
     inkscape:snap-bbox="true" />
  <defs
     id="defs114">
    <marker
       inkscape:stockid="Arrow2Mend"
       orient="auto"
       refY="0"
       refX="0"
       id="marker6966"
       style="overflow:visible"
       inkscape:isstock="true">
      <path
         inkscape:connector-curvature="0"
         id="path6964"
         style="fill:#ff0000;fill-opacity:1;fill-rule:evenodd;stroke:#ff0000;stroke-width:0.625;stroke-linejoin:round;stroke-opacity:1"
         d="M 8.7185878,4.0337352 -2.2072895,0.01601326 8.7185884,-4.0017078 c -1.7454984,2.3720609 -1.7354408,5.6174519 -6e-7,8.035443 z"
         transform="scale(-0.6)" />
    </marker>
    <marker
       inkscape:stockid="Arrow2Mend"
       orient="auto"
       refY="0"
       refX="0"
       id="marker4155"
       style="overflow:visible"
       inkscape:isstock="true">
      <path
         inkscape:connector-curvature="0"
         id="path4153"
         style="fill:#008000;fill-opacity:1;fill-rule:evenodd;stroke:#008000;stroke-width:0.625;stroke-linejoin:round;stroke-opacity:1"
         d="M 8.7185878,4.0337352 -2.2072895,0.01601326 8.7185884,-4.0017078 c -1.7454984,2.3720609 -1.7354408,5.6174519 -6e-7,8.035443 z"
         transform="scale(-0.6)" />
    </marker>
    <marker
       inkscape:isstock="true"
       style="overflow:visible"
       id="Arrow2Mend"
       refX="0"
       refY="0"
       orient="auto"
       inkscape:stockid="Arrow2Mend">
      <path
         transform="scale(-0.6)"
         d="M 8.7185878,4.0337352 -2.2072895,0.01601326 8.7185884,-4.0017078 c -1.7454984,2.3720609 -1.7354408,5.6174519 -6e-7,8.035443 z"
         style="fill:#ff0000;fill-opacity:1;fill-rule:evenodd;stroke:#ff0000;stroke-width:0.625;stroke-linejoin:round;stroke-opacity:1"
         id="path2518"
         inkscape:connector-curvature="0" />
    </marker>
    <marker
       inkscape:isstock="true"
       style="overflow:visible"
       id="marker2754"
       refX="0"
       refY="0"
       orient="auto"
       inkscape:stockid="Arrow2Lend">
      <path
         transform="matrix(-1.1,0,0,-1.1,-1.1,0)"
         d="M 8.7185878,4.0337352 -2.2072895,0.01601326 8.7185884,-4.0017078 c -1.7454984,2.3720609 -1.7354408,5.6174519 -6e-7,8.035443 z"
         style="fill:#000000;fill-opacity:1;fill-rule:evenodd;stroke:#000000;stroke-width:0.625;stroke-linejoin:round;stroke-opacity:1"
         id="path2512"
         inkscape:connector-curvature="0" />
    </marker>
    <marker
       inkscape:stockid="Arrow2Lend"
       orient="auto"
       refY="0"
       refX="0"
       id="marker9701"
       style="overflow:visible"
       inkscape:isstock="true">
      <path
         inkscape:connector-curvature="0"
         id="path9699"
         style="fill:#0000ff;fill-opacity:1;fill-rule:evenodd;stroke:#0000ff;stroke-width:0.625;stroke-linejoin:round;stroke-opacity:1"
         d="M 8.7185878,4.0337352 -2.2072895,0.01601326 8.7185884,-4.0017078 c -1.7454984,2.3720609 -1.7354408,5.6174519 -6e-7,8.035443 z"
         transform="matrix(-1.1,0,0,-1.1,-1.1,0)" />
    </marker>
    <marker
       inkscape:isstock="true"
       style="overflow:visible"
       id="Arrow2Lend"
       refX="0"
       refY="0"
       orient="auto"
       inkscape:stockid="Arrow2Lend">
      <path
         transform="matrix(-1.1,0,0,-1.1,-1.1,0)"
         d="M 8.7185878,4.0337352 -2.2072895,0.01601326 8.7185884,-4.0017078 c -1.7454984,2.3720609 -1.7354408,5.6174519 -6e-7,8.035443 z"
         style="fill:#ff0000;fill-opacity:1;fill-rule:evenodd;stroke:#ff0000;stroke-width:0.625;stroke-linejoin:round;stroke-opacity:1"
         id="path2960"
         inkscape:connector-curvature="0" />
    </marker>
    <marker
       inkscape:isstock="true"
       style="overflow:visible"
       id="Arrow2Lend-1"
       refX="0"
       refY="0"
       orient="auto"
       inkscape:stockid="Arrow2Lend">
      <path
         transform="matrix(-1.1,0,0,-1.1,-1.1,0)"
         d="M 8.7185878,4.0337352 -2.2072895,0.01601326 8.7185884,-4.0017078 c -1.7454984,2.3720609 -1.7354408,5.6174519 -6e-7,8.035443 z"
         style="fill:#008000;fill-opacity:1;fill-rule:evenodd;stroke:#008000;stroke-width:0.625;stroke-linejoin:round;stroke-opacity:1"
         id="path2960-4"
         inkscape:connector-curvature="0" />
    </marker>
    <marker
       inkscape:isstock="true"
       style="overflow:visible"
       id="Arrow2Lend-18"
       refX="0"
       refY="0"
       orient="auto"
       inkscape:stockid="Arrow2Lend">
      <path
         transform="matrix(-1.1,0,0,-1.1,-1.1,0)"
         d="M 8.7185878,4.0337352 -2.2072895,0.01601326 8.7185884,-4.0017078 c -1.7454984,2.3720609 -1.7354408,5.6174519 -6e-7,8.035443 z"
         style="fill:#ff0000;fill-opacity:1;fill-rule:evenodd;stroke:#ff0000;stroke-width:0.625;stroke-linejoin:round;stroke-opacity:1"
         id="path2960-7"
         inkscape:connector-curvature="0" />
    </marker>
    <marker
       inkscape:isstock="true"
       style="overflow:visible"
       id="Arrow2Lend-1-0"
       refX="0"
       refY="0"
       orient="auto"
       inkscape:stockid="Arrow2Lend">
      <path
         transform="matrix(-1.1,0,0,-1.1,-1.1,0)"
         d="M 8.7185878,4.0337352 -2.2072895,0.01601326 8.7185884,-4.0017078 c -1.7454984,2.3720609 -1.7354408,5.6174519 -6e-7,8.035443 z"
         style="fill:#008000;fill-opacity:1;fill-rule:evenodd;stroke:#008000;stroke-width:0.625;stroke-linejoin:round;stroke-opacity:1"
         id="path2960-4-9"
         inkscape:connector-curvature="0" />
    </marker>
    <marker
       inkscape:isstock="true"
       style="overflow:visible"
       id="Arrow2Lend-1-07"
       refX="0"
       refY="0"
       orient="auto"
       inkscape:stockid="Arrow2Lend">
      <path
         transform="matrix(-1.1,0,0,-1.1,-1.1,0)"
         d="M 8.7185878,4.0337352 -2.2072895,0.01601326 8.7185884,-4.0017078 c -1.7454984,2.3720609 -1.7354408,5.6174519 -6e-7,8.035443 z"
         style="fill:#ff0000;fill-opacity:1;fill-rule:evenodd;stroke:#ff0000;stroke-width:0.625;stroke-linejoin:round;stroke-opacity:1"
         id="path2960-4-5"
         inkscape:connector-curvature="0" />
    </marker>
    <marker
       inkscape:isstock="true"
       style="overflow:visible"
       id="Arrow2Lend-1-07-2"
       refX="0"
       refY="0"
       orient="auto"
       inkscape:stockid="Arrow2Lend">
      <path
         transform="matrix(-1.1,0,0,-1.1,-1.1,0)"
         d="M 8.7185878,4.0337352 -2.2072895,0.01601326 8.7185884,-4.0017078 c -1.7454984,2.3720609 -1.7354408,5.6174519 -6e-7,8.035443 z"
         style="fill:#ff0000;fill-opacity:1;fill-rule:evenodd;stroke:#ff0000;stroke-width:0.625;stroke-linejoin:round;stroke-opacity:1"
         id="path2960-4-5-7"
         inkscape:connector-curvature="0" />
    </marker>
    <marker
       inkscape:isstock="true"
       style="overflow:visible"
       id="Arrow2Lend-1-07-2-7"
       refX="0"
       refY="0"
       orient="auto"
       inkscape:stockid="Arrow2Lend">
      <path
         transform="matrix(-1.1,0,0,-1.1,-1.1,0)"
         d="M 8.7185878,4.0337352 -2.2072895,0.01601326 8.7185884,-4.0017078 c -1.7454984,2.3720609 -1.7354408,5.6174519 -6e-7,8.035443 z"
         style="fill:#ff0000;fill-opacity:1;fill-rule:evenodd;stroke:#ff0000;stroke-width:0.625;stroke-linejoin:round;stroke-opacity:1"
         id="path2960-4-5-7-7"
         inkscape:connector-curvature="0" />
    </marker>
    <marker
       inkscape:isstock="true"
       style="overflow:visible"
       id="Arrow2Lend-6"
       refX="0"
       refY="0"
       orient="auto"
       inkscape:stockid="Arrow2Lend">
      <path
         transform="matrix(-1.1,0,0,-1.1,-1.1,0)"
         d="M 8.7185878,4.0337352 -2.2072895,0.01601326 8.7185884,-4.0017078 c -1.7454984,2.3720609 -1.7354408,5.6174519 -6e-7,8.035443 z"
         style="fill:#ff0000;fill-opacity:1;fill-rule:evenodd;stroke:#ff0000;stroke-width:0.625;stroke-linejoin:round;stroke-opacity:1"
         id="path2960-0"
         inkscape:connector-curvature="0" />
    </marker>
    <marker
       inkscape:isstock="true"
       style="overflow:visible"
       id="Arrow2Lend-4-9"
       refX="0"
       refY="0"
       orient="auto"
       inkscape:stockid="Arrow2Lend">
      <path
         transform="matrix(-1.1,0,0,-1.1,-1.1,0)"
         d="M 8.7185878,4.0337352 -2.2072895,0.01601326 8.7185884,-4.0017078 c -1.7454984,2.3720609 -1.7354408,5.6174519 -6e-7,8.035443 z"
         style="fill:#ff0000;fill-opacity:1;fill-rule:evenodd;stroke:#ff0000;stroke-width:0.625;stroke-linejoin:round;stroke-opacity:1"
         id="path2960-2-1"
         inkscape:connector-curvature="0" />
    </marker>
    <marker
       inkscape:stockid="Arrow2Lend"
       orient="auto"
       refY="0"
       refX="0"
       id="marker9701-1"
       style="overflow:visible"
       inkscape:isstock="true">
      <path
         inkscape:connector-curvature="0"
         id="path9699-9"
         style="fill:#0000ff;fill-opacity:1;fill-rule:evenodd;stroke:#0000ff;stroke-width:0.625;stroke-linejoin:round;stroke-opacity:1"
         d="M 8.7185878,4.0337352 -2.2072895,0.01601326 8.7185884,-4.0017078 c -1.7454984,2.3720609 -1.7354408,5.6174519 -6e-7,8.035443 z"
         transform="matrix(-1.1,0,0,-1.1,-1.1,0)" />
    </marker>
    <marker
       inkscape:stockid="Arrow2Lend"
       orient="auto"
       refY="0"
       refX="0"
       id="marker9701-6"
       style="overflow:visible"
       inkscape:isstock="true">
      <path
         inkscape:connector-curvature="0"
         id="path9699-90"
         style="fill:#0000ff;fill-opacity:1;fill-rule:evenodd;stroke:#0000ff;stroke-width:0.625;stroke-linejoin:round;stroke-opacity:1"
         d="M 8.7185878,4.0337352 -2.2072895,0.01601326 8.7185884,-4.0017078 c -1.7454984,2.3720609 -1.7354408,5.6174519 -6e-7,8.035443 z"
         transform="matrix(-1.1,0,0,-1.1,-1.1,0)" />
    </marker>
    <marker
       inkscape:stockid="Arrow2Lend"
       orient="auto"
       refY="0"
       refX="0"
       id="marker9701-8"
       style="overflow:visible"
       inkscape:isstock="true">
      <path
         inkscape:connector-curvature="0"
         id="path9699-1"
         style="fill:#0000ff;fill-opacity:1;fill-rule:evenodd;stroke:#0000ff;stroke-width:0.625;stroke-linejoin:round;stroke-opacity:1"
         d="M 8.7185878,4.0337352 -2.2072895,0.01601326 8.7185884,-4.0017078 c -1.7454984,2.3720609 -1.7354408,5.6174519 -6e-7,8.035443 z"
         transform="matrix(-1.1,0,0,-1.1,-1.1,0)" />
    </marker>
    <marker
       inkscape:stockid="Arrow2Lend"
       orient="auto"
       refY="0"
       refX="0"
       id="marker9701-6-0"
       style="overflow:visible"
       inkscape:isstock="true">
      <path
         inkscape:connector-curvature="0"
         id="path9699-90-3"
         style="fill:#0000ff;fill-opacity:1;fill-rule:evenodd;stroke:#0000ff;stroke-width:0.625;stroke-linejoin:round;stroke-opacity:1"
         d="M 8.7185878,4.0337352 -2.2072895,0.01601326 8.7185884,-4.0017078 c -1.7454984,2.3720609 -1.7354408,5.6174519 -6e-7,8.035443 z"
         transform="matrix(-1.1,0,0,-1.1,-1.1,0)" />
    </marker>
    <marker
       inkscape:isstock="true"
       style="overflow:visible"
       id="Arrow2Lend-1-06"
       refX="0"
       refY="0"
       orient="auto"
       inkscape:stockid="Arrow2Lend">
      <path
         transform="matrix(-1.1,0,0,-1.1,-1.1,0)"
         d="M 8.7185878,4.0337352 -2.2072895,0.01601326 8.7185884,-4.0017078 c -1.7454984,2.3720609 -1.7354408,5.6174519 -6e-7,8.035443 z"
         style="fill:#008000;fill-opacity:1;fill-rule:evenodd;stroke:#008000;stroke-width:0.625;stroke-linejoin:round;stroke-opacity:1"
         id="path2960-4-0"
         inkscape:connector-curvature="0" />
    </marker>
    <marker
       inkscape:stockid="Arrow2Lend"
       orient="auto"
       refY="0"
       refX="0"
       id="marker9701-8-0"
       style="overflow:visible"
       inkscape:isstock="true">
      <path
         inkscape:connector-curvature="0"
         id="path9699-1-1"
         style="fill:#0000ff;fill-opacity:1;fill-rule:evenodd;stroke:#0000ff;stroke-width:0.625;stroke-linejoin:round;stroke-opacity:1"
         d="M 8.7185878,4.0337352 -2.2072895,0.01601326 8.7185884,-4.0017078 c -1.7454984,2.3720609 -1.7354408,5.6174519 -6e-7,8.035443 z"
         transform="matrix(-1.1,0,0,-1.1,-1.1,0)" />
    </marker>
    <marker
       inkscape:stockid="Arrow2Lend"
       orient="auto"
       refY="0"
       refX="0"
       id="marker9701-6-0-9"
       style="overflow:visible"
       inkscape:isstock="true">
      <path
         inkscape:connector-curvature="0"
         id="path9699-90-3-4"
         style="fill:#0000ff;fill-opacity:1;fill-rule:evenodd;stroke:#0000ff;stroke-width:0.625;stroke-linejoin:round;stroke-opacity:1"
         d="M 8.7185878,4.0337352 -2.2072895,0.01601326 8.7185884,-4.0017078 c -1.7454984,2.3720609 -1.7354408,5.6174519 -6e-7,8.035443 z"
         transform="matrix(-1.1,0,0,-1.1,-1.1,0)" />
    </marker>
    <marker
       inkscape:isstock="true"
       style="overflow:visible"
       id="Arrow2Lend-1-06-1"
       refX="0"
       refY="0"
       orient="auto"
       inkscape:stockid="Arrow2Lend">
      <path
         transform="matrix(-1.1,0,0,-1.1,-1.1,0)"
         d="M 8.7185878,4.0337352 -2.2072895,0.01601326 8.7185884,-4.0017078 c -1.7454984,2.3720609 -1.7354408,5.6174519 -6e-7,8.035443 z"
         style="fill:#008000;fill-opacity:1;fill-rule:evenodd;stroke:#008000;stroke-width:0.625;stroke-linejoin:round;stroke-opacity:1"
         id="path2960-4-0-1"
         inkscape:connector-curvature="0" />
    </marker>
    <marker
       inkscape:isstock="true"
       style="overflow:visible"
       id="Arrow2Lend-1-06-1-4"
       refX="0"
       refY="0"
       orient="auto"
       inkscape:stockid="Arrow2Lend">
      <path
         transform="matrix(-1.1,0,0,-1.1,-1.1,0)"
         d="M 8.7185878,4.0337352 -2.2072895,0.01601326 8.7185884,-4.0017078 c -1.7454984,2.3720609 -1.7354408,5.6174519 -6e-7,8.035443 z"
         style="fill:#008000;fill-opacity:1;fill-rule:evenodd;stroke:#008000;stroke-width:0.625;stroke-linejoin:round;stroke-opacity:1"
         id="path2960-4-0-1-3"
         inkscape:connector-curvature="0" />
    </marker>
    <marker
       inkscape:isstock="true"
       style="overflow:visible"
       id="Arrow2Lend-1-06-1-4-6"
       refX="0"
       refY="0"
       orient="auto"
       inkscape:stockid="Arrow2Lend">
      <path
         transform="matrix(-1.1,0,0,-1.1,-1.1,0)"
         d="M 8.7185878,4.0337352 -2.2072895,0.01601326 8.7185884,-4.0017078 c -1.7454984,2.3720609 -1.7354408,5.6174519 -6e-7,8.035443 z"
         style="fill:#008000;fill-opacity:1;fill-rule:evenodd;stroke:#008000;stroke-width:0.625;stroke-linejoin:round;stroke-opacity:1"
         id="path2960-4-0-1-3-1"
         inkscape:connector-curvature="0" />
    </marker>
    <marker
       inkscape:isstock="true"
       style="overflow:visible"
       id="Arrow2Lend-1-07-7"
       refX="0"
       refY="0"
       orient="auto"
       inkscape:stockid="Arrow2Lend">
      <path
         transform="matrix(-1.1,0,0,-1.1,-1.1,0)"
         d="M 8.7185878,4.0337352 -2.2072895,0.01601326 8.7185884,-4.0017078 c -1.7454984,2.3720609 -1.7354408,5.6174519 -6e-7,8.035443 z"
         style="fill:#ff0000;fill-opacity:1;fill-rule:evenodd;stroke:#ff0000;stroke-width:0.625;stroke-linejoin:round;stroke-opacity:1"
         id="path2960-4-5-9"
         inkscape:connector-curvature="0" />
    </marker>
    <marker
       inkscape:isstock="true"
       style="overflow:visible"
       id="Arrow2Lend-1-02"
       refX="0"
       refY="0"
       orient="auto"
       inkscape:stockid="Arrow2Lend">
      <path
         transform="matrix(-1.1,0,0,-1.1,-1.1,0)"
         d="M 8.7185878,4.0337352 -2.2072895,0.01601326 8.7185884,-4.0017078 c -1.7454984,2.3720609 -1.7354408,5.6174519 -6e-7,8.035443 z"
         style="fill:#008000;fill-opacity:1;fill-rule:evenodd;stroke:#008000;stroke-width:0.625;stroke-linejoin:round;stroke-opacity:1"
         id="path2960-4-4"
         inkscape:connector-curvature="0" />
    </marker>
    <marker
       inkscape:isstock="true"
       style="overflow:visible"
       id="Arrow2Lend-1-02-3"
       refX="0"
       refY="0"
       orient="auto"
       inkscape:stockid="Arrow2Lend">
      <path
         transform="matrix(-1.1,0,0,-1.1,-1.1,0)"
         d="M 8.7185878,4.0337352 -2.2072895,0.01601326 8.7185884,-4.0017078 c -1.7454984,2.3720609 -1.7354408,5.6174519 -6e-7,8.035443 z"
         style="fill:#008000;fill-opacity:1;fill-rule:evenodd;stroke:#008000;stroke-width:0.625;stroke-linejoin:round;stroke-opacity:1"
         id="path2960-4-4-9"
         inkscape:connector-curvature="0" />
    </marker>
    <marker
       inkscape:collect="always"
       inkscape:isstock="true"
       style="overflow:visible"
       id="Arrow2Mend-9"
       refX="0"
       refY="0"
       orient="auto"
       inkscape:stockid="Arrow2Mend">
      <path
         transform="scale(-0.6)"
         d="M 8.7185878,4.0337352 -2.2072895,0.01601326 8.7185884,-4.0017078 c -1.7454984,2.3720609 -1.7354408,5.6174519 -6e-7,8.035443 z"
         style="fill:#ff0000;fill-opacity:1;fill-rule:evenodd;stroke:#ff0000;stroke-width:0.625;stroke-linejoin:round;stroke-opacity:1"
         id="path2518-3"
         inkscape:connector-curvature="0" />
    </marker>
    <marker
       inkscape:stockid="Arrow2Mend"
       orient="auto"
       refY="0"
       refX="0"
       id="marker4155-0"
       style="overflow:visible"
       inkscape:isstock="true">
      <path
         inkscape:connector-curvature="0"
         id="path4153-3"
         style="fill:#008000;fill-opacity:1;fill-rule:evenodd;stroke:#008000;stroke-width:0.625;stroke-linejoin:round;stroke-opacity:1"
         d="M 8.7185878,4.0337352 -2.2072895,0.01601326 8.7185884,-4.0017078 c -1.7454984,2.3720609 -1.7354408,5.6174519 -6e-7,8.035443 z"
         transform="scale(-0.6)" />
    </marker>
    <marker
       inkscape:stockid="Arrow2Mend"
       orient="auto"
       refY="0"
       refX="0"
       id="marker4155-1"
       style="overflow:visible"
       inkscape:isstock="true">
      <path
         inkscape:connector-curvature="0"
         id="path4153-7"
         style="fill:#008000;fill-opacity:1;fill-rule:evenodd;stroke:#008000;stroke-width:0.625;stroke-linejoin:round;stroke-opacity:1"
         d="M 8.7185878,4.0337352 -2.2072895,0.01601326 8.7185884,-4.0017078 c -1.7454984,2.3720609 -1.7354408,5.6174519 -6e-7,8.035443 z"
         transform="scale(-0.6)" />
    </marker>
    <marker
       inkscape:stockid="Arrow2Mend"
       orient="auto"
       refY="0"
       refX="0"
       id="marker4155-1-3"
       style="overflow:visible"
       inkscape:isstock="true">
      <path
         inkscape:connector-curvature="0"
         id="path4153-7-6"
         style="fill:#008000;fill-opacity:1;fill-rule:evenodd;stroke:#008000;stroke-width:0.625;stroke-linejoin:round;stroke-opacity:1"
         d="M 8.7185878,4.0337352 -2.2072895,0.01601326 8.7185884,-4.0017078 c -1.7454984,2.3720609 -1.7354408,5.6174519 -6e-7,8.035443 z"
         transform="scale(-0.6)" />
    </marker>
    <marker
       inkscape:stockid="Arrow2Mend"
       orient="auto"
       refY="0"
       refX="0"
       id="marker6966-6"
       style="overflow:visible"
       inkscape:isstock="true">
      <path
         inkscape:connector-curvature="0"
         id="path6964-9"
         style="fill:#ff0000;fill-opacity:1;fill-rule:evenodd;stroke:#ff0000;stroke-width:0.625;stroke-linejoin:round;stroke-opacity:1"
         d="M 8.7185878,4.0337352 -2.2072895,0.01601326 8.7185884,-4.0017078 c -1.7454984,2.3720609 -1.7354408,5.6174519 -6e-7,8.035443 z"
         transform="scale(-0.6)" />
    </marker>
  </defs>
  <metadata
     id="metadata117">
    <rdf:RDF>
      <cc:Work
         rdf:about="">
        <dc:format>image/svg+xml</dc:format>
        <dc:type
           rdf:resource="http://purl.org/dc/dcmitype/StillImage" />
        <dc:title></dc:title>
      </cc:Work>
    </rdf:RDF>
  </metadata>
  <g
     id="layer1"
     inkscape:groupmode="layer"
     inkscape:label="Calque 1"
     transform="translate(-37.815442,-93.848691)">
    <g
       id="g714-6-5"
       transform="matrix(0,-0.35277777,0.35277777,0,128.25959,328.43793)" />
    <g
       id="g10327"
       transform="translate(-5.2450441,-74.479625)">
      <rect
         style="opacity:1;vector-effect:none;fill:none;fill-opacity:1;fill-rule:nonzero;stroke:#000000;stroke-width:0.11011305;stroke-linecap:butt;stroke-linejoin:miter;stroke-miterlimit:4;stroke-dasharray:0.88090447, 0.22022611, 0.11011307, 0.22022611;stroke-dashoffset:0;stroke-opacity:1;paint-order:markers fill stroke"
         id="rect1517-7-8"
         width="5.4401469"
         height="16.347258"
         x="56.296764"
         y="194.38541" />
      <path
         style="fill:none;stroke:#0000ff;stroke-width:0.14674896;stroke-linecap:butt;stroke-linejoin:miter;stroke-miterlimit:4;stroke-dasharray:none;stroke-opacity:1;marker-end:url(#marker9701)"
         d="m 61.744999,206.5251 v 24.77619"
         id="path9691"
         inkscape:connector-curvature="0" />
      <path
         style="fill:none;stroke:#0000ff;stroke-width:0.13125616;stroke-linecap:butt;stroke-linejoin:miter;stroke-miterlimit:4;stroke-dasharray:none;stroke-opacity:1;marker-end:url(#marker9701-6)"
         d="M 58.405898,210.64978 H 78.226849"
         id="path9691-1"
         inkscape:connector-curvature="0" />
      <g
         transform="matrix(0.352777,0,0,0.352777,23.262164,161.63055)"
         ns1:version="0.9.0"
         ns1:texconverter="pdflatex"
         ns1:pdfconverter="pdf2svg"
         ns1:text="$\\myvec{X}$"
         ns1:preamble="/Users/lafon/.config/inkscape/extensions/textext/preambule-inkscape.tex"
         ns1:scale="1.0"
         ns1:alignment="middle center"
         inkscapeversion="0.92.2"
         ns1:jacobian_sqrt="0.352777"
         style="fill:#0000ff;fill-opacity:0.99607843"
         id="g13556">
        <g
           id="g13554"
           style="fill:#0000ff;fill-opacity:0.99607843">
          <g
             style="fill:#0000ff;fill-opacity:0.99607843"
             id="g13544">
            <path
               inkscape:connector-curvature="0"
               style="fill:#0000ff;fill-opacity:0.99607843;stroke:none;stroke-width:0"
               d="m -0.046875,-2.6875 c -0.1875,0.03125 -0.203125,0.3125 -0.015625,0.375 0.09375,0.03125 0.1875,0.015625 0.28125,0.015625 h 2.953125 c 0.09375,0 0.1875,0 0.265625,-0.0625 C 3.546875,-2.4375 3.515625,-2.625 3.390625,-2.6875 3.3125,-2.71875 3.25,-2.703125 3.1875,-2.703125 H 0.28125 c -0.109375,0 -0.21875,-0.015625 -0.328125,0.015625 z m 0,0"
               transform="translate(149.819,128.256)"
               id="path13542" />
          </g>
          <g
             style="fill:#0000ff;fill-opacity:0.99607843"
             id="g13548">
            <path
               inkscape:connector-curvature="0"
               style="fill:#0000ff;fill-opacity:0.99607843;stroke:none;stroke-width:0"
               d="M 3.46875,-2.703125 H 0.375 c -0.0625,0 -0.15625,-0.015625 -0.21875,0.015625 C 0.0625,-2.671875 0,-2.59375 0,-2.5 c 0,0.09375 0.0625,0.171875 0.15625,0.1875 0.0625,0.015625 0.15625,0.015625 0.21875,0.015625 H 3.46875 C 3.3125,-2.15625 3.15625,-2 2.984375,-1.84375 2.9375,-1.796875 2.828125,-1.71875 2.875,-1.640625 c 0.03125,0.0625 0.078125,0.0625 0.140625,0.046875 C 3.125,-1.625 3.25,-1.671875 3.375,-1.71875 l 1.515625,-0.5 c 0.15625,-0.046875 0.328125,-0.109375 0.5,-0.15625 0.046875,-0.03125 0.125,-0.0625 0.125,-0.125 0,-0.078125 -0.078125,-0.109375 -0.125,-0.125 -0.171875,-0.0625 -0.34375,-0.109375 -0.5,-0.171875 l -1.515625,-0.5 C 3.25,-3.328125 3.125,-3.375 3.015625,-3.40625 2.953125,-3.421875 2.90625,-3.421875 2.875,-3.375 c -0.046875,0.078125 0.0625,0.171875 0.109375,0.21875 0.171875,0.140625 0.328125,0.3125 0.484375,0.453125 z m 0,0"
               transform="translate(152.21301,128.256)"
               id="path13546" />
          </g>
          <g
             style="fill:#0000ff;fill-opacity:0.99607843"
             id="g13552">
            <path
               inkscape:connector-curvature="0"
               style="fill:#0000ff;fill-opacity:0.99607843;stroke:none;stroke-width:0"
               d="M 4.828125,-4.09375 4,-6.078125 c -0.03125,-0.078125 -0.046875,-0.125 -0.046875,-0.125 0,-0.0625 0.15625,-0.25 0.578125,-0.296875 0.109375,-0.015625 0.203125,-0.015625 0.203125,-0.1875 0,-0.125 -0.125,-0.125 -0.15625,-0.125 -0.40625,0 -0.828125,0.03125 -1.25,0.03125 -0.25,0 -0.859375,-0.03125 -1.109375,-0.03125 -0.0625,0 -0.1875,0 -0.1875,0.203125 C 2.03125,-6.5 2.140625,-6.5 2.265625,-6.5 c 0.59375,0 0.65625,0.09375 0.75,0.3125 l 1.171875,2.78125 -2.109375,2.265625 -0.125,0.109375 C 1.46875,-0.5 1,-0.34375 0.484375,-0.3125 c -0.125,0.015625 -0.21875,0.015625 -0.21875,0.203125 0,0.015625 0,0.109375 0.140625,0.109375 0.296875,0 0.625,-0.03125 0.921875,-0.03125 C 1.703125,-0.03125 2.09375,0 2.453125,0 2.515625,0 2.625,0 2.625,-0.203125 2.625,-0.296875 2.53125,-0.3125 2.515625,-0.3125 c -0.09375,0 -0.40625,-0.03125 -0.40625,-0.3125 0,-0.15625 0.15625,-0.3125 0.265625,-0.4375 L 3.40625,-2.140625 4.296875,-3.125 l 1,2.390625 c 0.046875,0.109375 0.0625,0.109375 0.0625,0.140625 0,0.078125 -0.203125,0.25 -0.578125,0.28125 C 4.671875,-0.296875 4.578125,-0.296875 4.578125,-0.125 4.578125,0 4.6875,0 4.71875,0 5,0 5.703125,-0.03125 5.984375,-0.03125 6.234375,-0.03125 6.84375,0 7.09375,0 c 0.0625,0 0.1875,0 0.1875,-0.1875 0,-0.125 -0.109375,-0.125 -0.1875,-0.125 -0.65625,0 -0.6875,-0.03125 -0.859375,-0.4375 C 5.859375,-1.671875 5.1875,-3.234375 4.953125,-3.828125 5.625,-4.53125 6.671875,-5.71875 7,-5.984375 7.28125,-6.234375 7.671875,-6.46875 8.265625,-6.5 c 0.125,-0.015625 0.21875,-0.015625 0.21875,-0.203125 0,0 0,-0.109375 -0.125,-0.109375 -0.296875,0 -0.640625,0.03125 -0.9375,0.03125 -0.375,0 -0.75,-0.03125 -1.109375,-0.03125 -0.0625,0 -0.1875,0 -0.1875,0.203125 0,0.0625 0.046875,0.09375 0.109375,0.109375 0.09375,0.015625 0.40625,0.03125 0.40625,0.3125 0,0.140625 -0.109375,0.265625 -0.1875,0.359375 z m 0,0"
               transform="translate(148.712,134.765)"
               id="path13550" />
          </g>
        </g>
      </g>
      <g
         id="g1017"
         style="fill:#0000ff;fill-opacity:0.99607843"
         ns1:jacobian_sqrt="0.352777"
         inkscapeversion="0.92.2"
         ns1:alignment="middle center"
         ns1:scale="1.0"
         ns1:preamble="/Users/lafon/.config/inkscape/extensions/textext/preambule-inkscape.tex"
         ns1:text="$\\myvec{Z}$"
         ns1:pdfconverter="pdf2svg"
         ns1:texconverter="pdflatex"
         ns1:version="0.9.0"
         transform="matrix(0.352777,0,0,0.352777,4.1610295,181.80829)">
        <g
           style="fill:#0000ff;fill-opacity:0.99607843"
           id="surface1">
          <g
             id="g1005"
             style="fill:#0000ff;fill-opacity:0.99607843">
            <path
               id="path1003"
               transform="translate(149.819,128.256)"
               d="m -0.046875,-2.6875 c -0.1875,0.03125 -0.203125,0.3125 -0.015625,0.375 0.09375,0.03125 0.1875,0.015625 0.28125,0.015625 h 2.953125 c 0.09375,0 0.1875,0 0.265625,-0.0625 C 3.546875,-2.4375 3.515625,-2.625 3.390625,-2.6875 3.3125,-2.71875 3.25,-2.703125 3.1875,-2.703125 H 0.28125 c -0.109375,0 -0.21875,-0.015625 -0.328125,0.015625 z m 0,0"
               style="fill:#0000ff;fill-opacity:0.99607843;stroke:none;stroke-width:0"
               inkscape:connector-curvature="0" />
          </g>
          <g
             id="g1009"
             style="fill:#0000ff;fill-opacity:0.99607843">
            <path
               id="path1007"
               transform="translate(151.47578,128.256)"
               d="M 3.46875,-2.703125 H 0.375 c -0.0625,0 -0.15625,-0.015625 -0.21875,0.015625 C 0.0625,-2.671875 0,-2.59375 0,-2.5 c 0,0.09375 0.0625,0.171875 0.15625,0.1875 0.0625,0.015625 0.15625,0.015625 0.21875,0.015625 H 3.46875 C 3.3125,-2.15625 3.15625,-2 2.984375,-1.84375 2.9375,-1.796875 2.828125,-1.71875 2.875,-1.640625 c 0.03125,0.0625 0.078125,0.0625 0.140625,0.046875 C 3.125,-1.625 3.25,-1.671875 3.375,-1.71875 l 1.515625,-0.5 c 0.15625,-0.046875 0.328125,-0.109375 0.5,-0.15625 0.046875,-0.03125 0.125,-0.0625 0.125,-0.125 0,-0.078125 -0.078125,-0.109375 -0.125,-0.125 -0.171875,-0.0625 -0.34375,-0.109375 -0.5,-0.171875 l -1.515625,-0.5 C 3.25,-3.328125 3.125,-3.375 3.015625,-3.40625 2.953125,-3.421875 2.90625,-3.421875 2.875,-3.375 c -0.046875,0.078125 0.0625,0.171875 0.109375,0.21875 0.171875,0.140625 0.328125,0.3125 0.484375,0.453125 z m 0,0"
               style="fill:#0000ff;fill-opacity:0.99607843;stroke:none;stroke-width:0"
               inkscape:connector-curvature="0" />
          </g>
          <g
             id="g1013"
             style="fill:#0000ff;fill-opacity:0.99607843">
            <path
               id="path1011"
               transform="translate(149.107,134.765)"
               d="m 7.171875,-6.5625 c 0.015625,-0.046875 0.03125,-0.09375 0.03125,-0.15625 0,-0.09375 -0.046875,-0.09375 -0.25,-0.09375 H 2.75 c -0.234375,0 -0.25,0.015625 -0.3125,0.203125 L 1.890625,-4.8125 c -0.015625,0.046875 -0.03125,0.125 -0.03125,0.140625 0,0 0,0.109375 0.125,0.109375 0.09375,0 0.109375,-0.078125 0.125,-0.109375 C 2.5,-5.84375 3.015625,-6.5 4.5625,-6.5 h 1.625 L 0.625,-0.265625 c 0,0 -0.046875,0.140625 -0.046875,0.171875 C 0.578125,0 0.640625,0 0.828125,0 H 5.15625 c 0.25,0 0.25,-0.015625 0.3125,-0.203125 L 6.1875,-2.40625 c 0,-0.03125 0.03125,-0.109375 0.03125,-0.140625 0,-0.0625 -0.03125,-0.109375 -0.125,-0.109375 -0.09375,0 -0.109375,0.03125 -0.171875,0.25 C 5.484375,-1.0625 5,-0.34375 3.3125,-0.34375 H 1.609375 Z m 0,0"
               style="fill:#0000ff;fill-opacity:0.99607843;stroke:none;stroke-width:0"
               inkscape:connector-curvature="0" />
          </g>
        </g>
      </g>
      <rect
         style="opacity:1;vector-effect:none;fill:none;fill-opacity:1;fill-rule:nonzero;stroke:#000000;stroke-width:0.07791185;stroke-linecap:butt;stroke-linejoin:miter;stroke-miterlimit:4;stroke-dasharray:0.62329476, 0.15582369, 0.07791186, 0.15582369;stroke-dashoffset:0;stroke-opacity:1;paint-order:markers fill stroke"
         id="rect1517"
         width="12.922089"
         height="18.922089"
         x="61.736908"
         y="191.68243" />
      <rect
         style="opacity:1;vector-effect:none;fill:none;fill-opacity:1;fill-rule:nonzero;stroke:#000000;stroke-width:0.11011305;stroke-linecap:butt;stroke-linejoin:miter;stroke-miterlimit:4;stroke-dasharray:0.88090447, 0.22022611, 0.11011307, 0.22022611;stroke-dashoffset:0;stroke-opacity:1;paint-order:markers fill stroke"
         id="rect1517-7"
         width="12.889888"
         height="37.889889"
         x="48.828846"
         y="172.69853" />
      <path
         style="fill:none;stroke:#ff0000;stroke-width:0.26499999;stroke-linecap:butt;stroke-linejoin:miter;stroke-miterlimit:4;stroke-dasharray:none;stroke-opacity:1;marker-end:url(#Arrow2Mend)"
         d="M 61.718734,210.58843 74.659,191.68244"
         id="path2489"
         inkscape:connector-curvature="0" />
      <path
         style="fill:none;stroke:#ff0000;stroke-width:0.26499999;stroke-linecap:butt;stroke-linejoin:miter;stroke-miterlimit:4;stroke-dasharray:none;stroke-opacity:1;marker-end:url(#Arrow2Mend-9)"
         d="M 61.718733,210.58844 48.828847,172.69854"
         id="path2489-8"
         inkscape:connector-curvature="0"
         sodipodi:nodetypes="cc" />
      <g
         transform="matrix(0.352778,0,0,0.352778,22.610086,143.61114)"
         ns1:version="0.9.0"
         ns1:texconverter="pdflatex"
         ns1:pdfconverter="pdf2svg"
         ns1:text="$\\vec{F}_{r1}$"
         ns1:preamble="/Users/lafon/.config/inkscape/extensions/textext/preambule-inkscape.tex"
         ns1:scale="1.0"
         ns1:alignment="middle center"
         inkscapeversion="0.92.2"
         ns1:jacobian_sqrt="0.352778"
         id="g3749"
         style="fill:#ff0000;fill-opacity:1">
        <g
           id="g3747"
           style="fill:#ff0000;fill-opacity:1">
          <g
             style="fill:#ff0000;fill-opacity:1"
             id="g3733">
            <path
               inkscape:connector-curvature="0"
               style="fill:#ff0000;fill-opacity:1;stroke:none;stroke-width:0"
               d="m 5.359375,-5.9375 c -0.140625,0.140625 -0.46875,0.421875 -0.46875,0.59375 0,0.09375 0.09375,0.203125 0.1875,0.203125 0.09375,0 0.140625,-0.078125 0.203125,-0.140625 C 5.390625,-5.421875 5.625,-5.703125 6.0625,-5.921875 6.125,-5.96875 6.234375,-6.015625 6.234375,-6.125 6.234375,-6.234375 6.15625,-6.28125 6.09375,-6.328125 5.875,-6.484375 5.765625,-6.65625 5.6875,-6.890625 5.65625,-6.984375 5.625,-7.125 5.484375,-7.125 c -0.140625,0 -0.203125,0.140625 -0.203125,0.21875 0,0.046875 0.078125,0.359375 0.234375,0.578125 H 2.15625 c -0.15625,0 -0.34375,0 -0.34375,0.203125 0,0.1875 0.1875,0.1875 0.34375,0.1875 z m 0,0"
               transform="translate(150.181,132.246)"
               id="path3731" />
          </g>
          <g
             style="fill:#ff0000;fill-opacity:1"
             id="g3737">
            <path
               inkscape:connector-curvature="0"
               style="fill:#ff0000;fill-opacity:1;stroke:none;stroke-width:0"
               d="m 3.015625,-3.234375 h 0.96875 c 0.75,0 0.828125,0.15625 0.828125,0.4375 0,0.078125 0,0.1875 -0.0625,0.5 C 4.71875,-2.25 4.71875,-2.21875 4.71875,-2.1875 c 0,0.078125 0.0625,0.109375 0.109375,0.109375 0.109375,0 0.109375,-0.03125 0.15625,-0.203125 L 5.53125,-4.453125 C 5.5625,-4.5625 5.5625,-4.578125 5.5625,-4.609375 5.5625,-4.625 5.546875,-4.71875 5.4375,-4.71875 5.34375,-4.71875 5.328125,-4.671875 5.296875,-4.5 5.078125,-3.734375 4.859375,-3.546875 4,-3.546875 H 3.09375 l 0.640625,-2.53125 C 3.828125,-6.4375 3.84375,-6.46875 4.28125,-6.46875 h 1.3125 c 1.21875,0 1.453125,0.328125 1.453125,1.09375 0,0.234375 0,0.265625 -0.03125,0.546875 C 7,-4.703125 7,-4.6875 7,-4.65625 c 0,0.046875 0.03125,0.125 0.125,0.125 0.109375,0 0.109375,-0.0625 0.125,-0.25 L 7.453125,-6.515625 C 7.484375,-6.78125 7.4375,-6.78125 7.1875,-6.78125 H 2.296875 c -0.1875,0 -0.296875,0 -0.296875,0.203125 0,0.109375 0.09375,0.109375 0.28125,0.109375 0.375,0 0.65625,0 0.65625,0.171875 0,0.046875 0,0.0625 -0.0625,0.25 L 1.5625,-0.78125 c -0.09375,0.390625 -0.109375,0.46875 -0.90625,0.46875 -0.171875,0 -0.28125,0 -0.28125,0.1875 C 0.375,0 0.5,0 0.53125,0 0.8125,0 1.5625,-0.03125 1.84375,-0.03125 2.171875,-0.03125 3,0 3.328125,0 3.421875,0 3.53125,0 3.53125,-0.1875 3.53125,-0.265625 3.484375,-0.296875 3.484375,-0.296875 3.453125,-0.3125 3.421875,-0.3125 3.203125,-0.3125 c -0.21875,0 -0.265625,0 -0.515625,-0.015625 -0.296875,-0.03125 -0.328125,-0.078125 -0.328125,-0.203125 0,-0.015625 0,-0.078125 0.046875,-0.21875 z m 0,0"
               transform="translate(148.712,134.765)"
               id="path3735" />
          </g>
          <g
             style="fill:#ff0000;fill-opacity:1"
             id="g3741">
            <path
               inkscape:connector-curvature="0"
               style="fill:#ff0000;fill-opacity:1;stroke:none;stroke-width:0"
               d="m 1.640625,-1.40625 c 0,-0.046875 0.171875,-0.671875 0.171875,-0.703125 0.015625,-0.0625 0.21875,-0.40625 0.453125,-0.578125 0.0625,-0.046875 0.25,-0.1875 0.5625,-0.1875 0.0625,0 0.234375,0 0.375,0.09375 -0.21875,0.0625 -0.296875,0.265625 -0.296875,0.390625 0,0.140625 0.109375,0.25 0.265625,0.25 0.171875,0 0.390625,-0.125 0.390625,-0.421875 0,-0.359375 -0.375,-0.515625 -0.734375,-0.515625 -0.359375,0 -0.671875,0.15625 -0.984375,0.5 -0.125,-0.421875 -0.546875,-0.5 -0.71875,-0.5 -0.25,0 -0.421875,0.171875 -0.546875,0.359375 -0.15625,0.265625 -0.25,0.671875 -0.25,0.71875 0,0.078125 0.09375,0.078125 0.125,0.078125 0.09375,0 0.09375,-0.015625 0.140625,-0.203125 0.109375,-0.421875 0.25,-0.75 0.515625,-0.75 0.1875,0 0.234375,0.15625 0.234375,0.34375 0,0.125 -0.0625,0.390625 -0.125,0.578125 -0.046875,0.1875 -0.109375,0.46875 -0.140625,0.625 L 0.84375,-0.4375 C 0.828125,-0.34375 0.78125,-0.171875 0.78125,-0.15625 0.78125,0 0.90625,0.0625 1.015625,0.0625 1.125,0.0625 1.265625,0 1.3125,-0.125 1.328125,-0.171875 1.40625,-0.484375 1.453125,-0.65625 Z m 0,0"
               transform="translate(155.119,136.259)"
               id="path3739" />
          </g>
          <g
             style="fill:#ff0000;fill-opacity:1"
             id="g3745">
            <path
               inkscape:connector-curvature="0"
               style="fill:#ff0000;fill-opacity:1;stroke:none;stroke-width:0"
               d="m 2.328125,-4.4375 c 0,-0.1875 0,-0.1875 -0.203125,-0.1875 -0.453125,0.4375 -1.078125,0.4375 -1.359375,0.4375 v 0.25 c 0.15625,0 0.625,0 1,-0.1875 v 3.546875 c 0,0.234375 0,0.328125 -0.6875,0.328125 H 0.8125 V 0 c 0.125,0 0.984375,-0.03125 1.234375,-0.03125 0.21875,0 1.09375,0.03125 1.25,0.03125 V -0.25 H 3.03125 c -0.703125,0 -0.703125,-0.09375 -0.703125,-0.328125 z m 0,0"
               transform="translate(159.032,136.259)"
               id="path3743" />
          </g>
        </g>
      </g>
      <g
         id="g3989"
         ns1:jacobian_sqrt="0.352778"
         inkscapeversion="0.92.2"
         ns1:alignment="middle center"
         ns1:scale="1.00000002835"
         ns1:preamble="/Users/lafon/.config/inkscape/extensions/textext/preambule-inkscape.tex"
         ns1:text="$\\vec{F}_{r2}$"
         ns1:pdfconverter="pdf2svg"
         ns1:texconverter="pdflatex"
         ns1:version="0.9.0"
         transform="matrix(0.352778,0,0,0.352778,-9.534128,124.18838)"
         style="fill:#ff0000;fill-opacity:1">
        <g
           id="g3987"
           style="fill:#ff0000;fill-opacity:1">
          <g
             id="g3973"
             style="fill:#ff0000;fill-opacity:1">
            <path
               id="path3971"
               transform="translate(150.181,132.246)"
               d="m 5.359375,-5.9375 c -0.140625,0.140625 -0.46875,0.421875 -0.46875,0.59375 0,0.09375 0.09375,0.203125 0.1875,0.203125 0.09375,0 0.140625,-0.078125 0.203125,-0.140625 C 5.390625,-5.421875 5.625,-5.703125 6.0625,-5.921875 6.125,-5.96875 6.234375,-6.015625 6.234375,-6.125 6.234375,-6.234375 6.15625,-6.28125 6.09375,-6.328125 5.875,-6.484375 5.765625,-6.65625 5.6875,-6.890625 5.65625,-6.984375 5.625,-7.125 5.484375,-7.125 c -0.140625,0 -0.203125,0.140625 -0.203125,0.21875 0,0.046875 0.078125,0.359375 0.234375,0.578125 H 2.15625 c -0.15625,0 -0.34375,0 -0.34375,0.203125 0,0.1875 0.1875,0.1875 0.34375,0.1875 z m 0,0"
               style="fill:#ff0000;fill-opacity:1;stroke:none;stroke-width:0"
               inkscape:connector-curvature="0" />
          </g>
          <g
             id="g3977"
             style="fill:#ff0000;fill-opacity:1">
            <path
               id="path3975"
               transform="translate(148.712,134.765)"
               d="m 3.015625,-3.234375 h 0.96875 c 0.75,0 0.828125,0.15625 0.828125,0.4375 0,0.078125 0,0.1875 -0.0625,0.5 C 4.71875,-2.25 4.71875,-2.21875 4.71875,-2.1875 c 0,0.078125 0.0625,0.109375 0.109375,0.109375 0.109375,0 0.109375,-0.03125 0.15625,-0.203125 L 5.53125,-4.453125 C 5.5625,-4.5625 5.5625,-4.578125 5.5625,-4.609375 5.5625,-4.625 5.546875,-4.71875 5.4375,-4.71875 5.34375,-4.71875 5.328125,-4.671875 5.296875,-4.5 5.078125,-3.734375 4.859375,-3.546875 4,-3.546875 H 3.09375 l 0.640625,-2.53125 C 3.828125,-6.4375 3.84375,-6.46875 4.28125,-6.46875 h 1.3125 c 1.21875,0 1.453125,0.328125 1.453125,1.09375 0,0.234375 0,0.265625 -0.03125,0.546875 C 7,-4.703125 7,-4.6875 7,-4.65625 c 0,0.046875 0.03125,0.125 0.125,0.125 0.109375,0 0.109375,-0.0625 0.125,-0.25 L 7.453125,-6.515625 C 7.484375,-6.78125 7.4375,-6.78125 7.1875,-6.78125 H 2.296875 c -0.1875,0 -0.296875,0 -0.296875,0.203125 0,0.109375 0.09375,0.109375 0.28125,0.109375 0.375,0 0.65625,0 0.65625,0.171875 0,0.046875 0,0.0625 -0.0625,0.25 L 1.5625,-0.78125 c -0.09375,0.390625 -0.109375,0.46875 -0.90625,0.46875 -0.171875,0 -0.28125,0 -0.28125,0.1875 C 0.375,0 0.5,0 0.53125,0 0.8125,0 1.5625,-0.03125 1.84375,-0.03125 2.171875,-0.03125 3,0 3.328125,0 3.421875,0 3.53125,0 3.53125,-0.1875 3.53125,-0.265625 3.484375,-0.296875 3.484375,-0.296875 3.453125,-0.3125 3.421875,-0.3125 3.203125,-0.3125 c -0.21875,0 -0.265625,0 -0.515625,-0.015625 -0.296875,-0.03125 -0.328125,-0.078125 -0.328125,-0.203125 0,-0.015625 0,-0.078125 0.046875,-0.21875 z m 0,0"
               style="fill:#ff0000;fill-opacity:1;stroke:none;stroke-width:0"
               inkscape:connector-curvature="0" />
          </g>
          <g
             id="g3981"
             style="fill:#ff0000;fill-opacity:1">
            <path
               id="path3979"
               transform="translate(155.119,136.259)"
               d="m 1.640625,-1.40625 c 0,-0.046875 0.171875,-0.671875 0.171875,-0.703125 0.015625,-0.0625 0.21875,-0.40625 0.453125,-0.578125 0.0625,-0.046875 0.25,-0.1875 0.5625,-0.1875 0.0625,0 0.234375,0 0.375,0.09375 -0.21875,0.0625 -0.296875,0.265625 -0.296875,0.390625 0,0.140625 0.109375,0.25 0.265625,0.25 0.171875,0 0.390625,-0.125 0.390625,-0.421875 0,-0.359375 -0.375,-0.515625 -0.734375,-0.515625 -0.359375,0 -0.671875,0.15625 -0.984375,0.5 -0.125,-0.421875 -0.546875,-0.5 -0.71875,-0.5 -0.25,0 -0.421875,0.171875 -0.546875,0.359375 -0.15625,0.265625 -0.25,0.671875 -0.25,0.71875 0,0.078125 0.09375,0.078125 0.125,0.078125 0.09375,0 0.09375,-0.015625 0.140625,-0.203125 0.109375,-0.421875 0.25,-0.75 0.515625,-0.75 0.1875,0 0.234375,0.15625 0.234375,0.34375 0,0.125 -0.0625,0.390625 -0.125,0.578125 -0.046875,0.1875 -0.109375,0.46875 -0.140625,0.625 L 0.84375,-0.4375 C 0.828125,-0.34375 0.78125,-0.171875 0.78125,-0.15625 0.78125,0 0.90625,0.0625 1.015625,0.0625 1.125,0.0625 1.265625,0 1.3125,-0.125 1.328125,-0.171875 1.40625,-0.484375 1.453125,-0.65625 Z m 0,0"
               style="fill:#ff0000;fill-opacity:1;stroke:none;stroke-width:0"
               inkscape:connector-curvature="0" />
          </g>
          <g
             id="g3985"
             style="fill:#ff0000;fill-opacity:1">
            <path
               id="path3983"
               transform="translate(159.032,136.259)"
               d="M 3.515625,-1.265625 H 3.28125 c -0.015625,0.15625 -0.09375,0.5625 -0.1875,0.625 C 3.046875,-0.59375 2.515625,-0.59375 2.40625,-0.59375 H 1.125 c 0.734375,-0.640625 0.984375,-0.84375 1.390625,-1.171875 0.515625,-0.40625 1,-0.84375 1,-1.5 0,-0.84375 -0.734375,-1.359375 -1.625,-1.359375 -0.859375,0 -1.453125,0.609375 -1.453125,1.25 0,0.34375 0.296875,0.390625 0.375,0.390625 0.15625,0 0.359375,-0.125 0.359375,-0.375 0,-0.125 -0.046875,-0.375 -0.40625,-0.375 C 0.984375,-4.21875 1.453125,-4.375 1.78125,-4.375 c 0.703125,0 1.0625,0.546875 1.0625,1.109375 0,0.609375 -0.4375,1.078125 -0.65625,1.328125 L 0.515625,-0.265625 C 0.4375,-0.203125 0.4375,-0.1875 0.4375,0 h 2.875 z m 0,0"
               style="fill:#ff0000;fill-opacity:1;stroke:none;stroke-width:0"
               inkscape:connector-curvature="0" />
          </g>
        </g>
      </g>
      <path
         style="fill:none;stroke:#008000;stroke-width:0.26499999;stroke-linecap:butt;stroke-linejoin:miter;stroke-miterlimit:4;stroke-dasharray:none;stroke-opacity:1;marker-end:url(#marker4155)"
         d="M 61.736906,210.60452 H 74.658995"
         id="path4115"
         inkscape:connector-curvature="0" />
      <g
         transform="matrix(0.352778,0,0,0.352778,22.081879,167.75582)"
         ns1:version="0.9.0"
         ns1:texconverter="pdflatex"
         ns1:pdfconverter="pdf2svg"
         ns1:text="$X_1$"
         ns1:preamble="/Users/lafon/.config/inkscape/extensions/textext/preambule-inkscape.tex"
         ns1:scale="1.00000002835"
         ns1:alignment="middle center"
         inkscapeversion="0.92.2"
         ns1:jacobian_sqrt="0.352778"
         style="fill:#008000;fill-opacity:1"
         id="g4376">
        <g
           id="g4374"
           style="fill:#008000;fill-opacity:1">
          <g
             style="fill:#008000;fill-opacity:1"
             id="g4368">
            <path
               inkscape:connector-curvature="0"
               style="fill:#008000;fill-opacity:1;stroke:none;stroke-width:0"
               d="M 4.828125,-4.09375 4,-6.078125 c -0.03125,-0.078125 -0.046875,-0.125 -0.046875,-0.125 0,-0.0625 0.15625,-0.25 0.578125,-0.296875 0.109375,-0.015625 0.203125,-0.015625 0.203125,-0.1875 0,-0.125 -0.125,-0.125 -0.15625,-0.125 -0.40625,0 -0.828125,0.03125 -1.25,0.03125 -0.25,0 -0.859375,-0.03125 -1.109375,-0.03125 -0.0625,0 -0.1875,0 -0.1875,0.203125 C 2.03125,-6.5 2.140625,-6.5 2.265625,-6.5 c 0.59375,0 0.65625,0.09375 0.75,0.3125 l 1.171875,2.78125 -2.109375,2.265625 -0.125,0.109375 C 1.46875,-0.5 1,-0.34375 0.484375,-0.3125 c -0.125,0.015625 -0.21875,0.015625 -0.21875,0.203125 0,0.015625 0,0.109375 0.140625,0.109375 0.296875,0 0.625,-0.03125 0.921875,-0.03125 C 1.703125,-0.03125 2.09375,0 2.453125,0 2.515625,0 2.625,0 2.625,-0.203125 2.625,-0.296875 2.53125,-0.3125 2.515625,-0.3125 c -0.09375,0 -0.40625,-0.03125 -0.40625,-0.3125 0,-0.15625 0.15625,-0.3125 0.265625,-0.4375 L 3.40625,-2.140625 4.296875,-3.125 l 1,2.390625 c 0.046875,0.109375 0.0625,0.109375 0.0625,0.140625 0,0.078125 -0.203125,0.25 -0.578125,0.28125 C 4.671875,-0.296875 4.578125,-0.296875 4.578125,-0.125 4.578125,0 4.6875,0 4.71875,0 5,0 5.703125,-0.03125 5.984375,-0.03125 6.234375,-0.03125 6.84375,0 7.09375,0 c 0.0625,0 0.1875,0 0.1875,-0.1875 0,-0.125 -0.109375,-0.125 -0.1875,-0.125 -0.65625,0 -0.6875,-0.03125 -0.859375,-0.4375 C 5.859375,-1.671875 5.1875,-3.234375 4.953125,-3.828125 5.625,-4.53125 6.671875,-5.71875 7,-5.984375 7.28125,-6.234375 7.671875,-6.46875 8.265625,-6.5 c 0.125,-0.015625 0.21875,-0.015625 0.21875,-0.203125 0,0 0,-0.109375 -0.125,-0.109375 -0.296875,0 -0.640625,0.03125 -0.9375,0.03125 -0.375,0 -0.75,-0.03125 -1.109375,-0.03125 -0.0625,0 -0.1875,0 -0.1875,0.203125 0,0.0625 0.046875,0.09375 0.109375,0.109375 0.09375,0.015625 0.40625,0.03125 0.40625,0.3125 0,0.140625 -0.109375,0.265625 -0.1875,0.359375 z m 0,0"
               transform="translate(148.712,134.765)"
               id="path4366" />
          </g>
          <g
             style="fill:#008000;fill-opacity:1"
             id="g4372">
            <path
               inkscape:connector-curvature="0"
               style="fill:#008000;fill-opacity:1;stroke:none;stroke-width:0"
               d="m 2.328125,-4.4375 c 0,-0.1875 0,-0.1875 -0.203125,-0.1875 -0.453125,0.4375 -1.078125,0.4375 -1.359375,0.4375 v 0.25 c 0.15625,0 0.625,0 1,-0.1875 v 3.546875 c 0,0.234375 0,0.328125 -0.6875,0.328125 H 0.8125 V 0 c 0.125,0 0.984375,-0.03125 1.234375,-0.03125 0.21875,0 1.09375,0.03125 1.25,0.03125 V -0.25 H 3.03125 c -0.703125,0 -0.703125,-0.09375 -0.703125,-0.328125 z m 0,0"
               transform="translate(156.966,136.259)"
               id="path4370" />
          </g>
        </g>
      </g>
      <path
         sodipodi:nodetypes="cc"
         style="fill:none;stroke:#008000;stroke-width:0.26499999;stroke-linecap:butt;stroke-linejoin:miter;stroke-miterlimit:4;stroke-dasharray:none;stroke-opacity:1;marker-end:url(#marker4155-0)"
         d="m 61.736908,210.60452 -12.908062,-0.0161"
         id="path4115-9"
         inkscape:connector-curvature="0" />
      <g
         id="g5110"
         style="fill:#008000;fill-opacity:1"
         ns1:jacobian_sqrt="0.352778"
         inkscapeversion="0.92.2"
         ns1:alignment="middle center"
         ns1:scale="1.0000000567"
         ns1:preamble="/Users/lafon/.config/inkscape/extensions/textext/preambule-inkscape.tex"
         ns1:text="$X_2$"
         ns1:pdfconverter="pdf2svg"
         ns1:texconverter="pdflatex"
         ns1:version="0.9.0"
         transform="matrix(0.352778,0,0,0.352778,-9.1360181,164.20046)">
        <g
           style="fill:#008000;fill-opacity:1"
           id="g5108">
          <g
             id="g5102"
             style="fill:#008000;fill-opacity:1">
            <path
               id="path5100"
               transform="translate(148.712,134.765)"
               d="M 4.828125,-4.09375 4,-6.078125 c -0.03125,-0.078125 -0.046875,-0.125 -0.046875,-0.125 0,-0.0625 0.15625,-0.25 0.578125,-0.296875 0.109375,-0.015625 0.203125,-0.015625 0.203125,-0.1875 0,-0.125 -0.125,-0.125 -0.15625,-0.125 -0.40625,0 -0.828125,0.03125 -1.25,0.03125 -0.25,0 -0.859375,-0.03125 -1.109375,-0.03125 -0.0625,0 -0.1875,0 -0.1875,0.203125 C 2.03125,-6.5 2.140625,-6.5 2.265625,-6.5 c 0.59375,0 0.65625,0.09375 0.75,0.3125 l 1.171875,2.78125 -2.109375,2.265625 -0.125,0.109375 C 1.46875,-0.5 1,-0.34375 0.484375,-0.3125 c -0.125,0.015625 -0.21875,0.015625 -0.21875,0.203125 0,0.015625 0,0.109375 0.140625,0.109375 0.296875,0 0.625,-0.03125 0.921875,-0.03125 C 1.703125,-0.03125 2.09375,0 2.453125,0 2.515625,0 2.625,0 2.625,-0.203125 2.625,-0.296875 2.53125,-0.3125 2.515625,-0.3125 c -0.09375,0 -0.40625,-0.03125 -0.40625,-0.3125 0,-0.15625 0.15625,-0.3125 0.265625,-0.4375 L 3.40625,-2.140625 4.296875,-3.125 l 1,2.390625 c 0.046875,0.109375 0.0625,0.109375 0.0625,0.140625 0,0.078125 -0.203125,0.25 -0.578125,0.28125 C 4.671875,-0.296875 4.578125,-0.296875 4.578125,-0.125 4.578125,0 4.6875,0 4.71875,0 5,0 5.703125,-0.03125 5.984375,-0.03125 6.234375,-0.03125 6.84375,0 7.09375,0 c 0.0625,0 0.1875,0 0.1875,-0.1875 0,-0.125 -0.109375,-0.125 -0.1875,-0.125 -0.65625,0 -0.6875,-0.03125 -0.859375,-0.4375 C 5.859375,-1.671875 5.1875,-3.234375 4.953125,-3.828125 5.625,-4.53125 6.671875,-5.71875 7,-5.984375 7.28125,-6.234375 7.671875,-6.46875 8.265625,-6.5 c 0.125,-0.015625 0.21875,-0.015625 0.21875,-0.203125 0,0 0,-0.109375 -0.125,-0.109375 -0.296875,0 -0.640625,0.03125 -0.9375,0.03125 -0.375,0 -0.75,-0.03125 -1.109375,-0.03125 -0.0625,0 -0.1875,0 -0.1875,0.203125 0,0.0625 0.046875,0.09375 0.109375,0.109375 0.09375,0.015625 0.40625,0.03125 0.40625,0.3125 0,0.140625 -0.109375,0.265625 -0.1875,0.359375 z m 0,0"
               style="fill:#008000;fill-opacity:1;stroke:none;stroke-width:0"
               inkscape:connector-curvature="0" />
          </g>
          <g
             id="g5106"
             style="fill:#008000;fill-opacity:1">
            <path
               id="path5104"
               transform="translate(156.966,136.259)"
               d="M 3.515625,-1.265625 H 3.28125 c -0.015625,0.15625 -0.09375,0.5625 -0.1875,0.625 C 3.046875,-0.59375 2.515625,-0.59375 2.40625,-0.59375 H 1.125 c 0.734375,-0.640625 0.984375,-0.84375 1.390625,-1.171875 0.515625,-0.40625 1,-0.84375 1,-1.5 0,-0.84375 -0.734375,-1.359375 -1.625,-1.359375 -0.859375,0 -1.453125,0.609375 -1.453125,1.25 0,0.34375 0.296875,0.390625 0.375,0.390625 0.15625,0 0.359375,-0.125 0.359375,-0.375 0,-0.125 -0.046875,-0.375 -0.40625,-0.375 C 0.984375,-4.21875 1.453125,-4.375 1.78125,-4.375 c 0.703125,0 1.0625,0.546875 1.0625,1.109375 0,0.609375 -0.4375,1.078125 -0.65625,1.328125 L 0.515625,-0.265625 C 0.4375,-0.203125 0.4375,-0.1875 0.4375,0 h 2.875 z m 0,0"
               style="fill:#008000;fill-opacity:1;stroke:none;stroke-width:0"
               inkscape:connector-curvature="0" />
          </g>
        </g>
      </g>
      <g
         transform="matrix(0.352778,0,0,0.352778,9.5947033,143.40485)"
         ns1:version="0.9.0"
         ns1:texconverter="pdflatex"
         ns1:pdfconverter="pdf2svg"
         ns1:text="$Z_1$"
         ns1:preamble="/Users/lafon/.config/inkscape/extensions/textext/preambule-inkscape.tex"
         ns1:scale="1.0000000567"
         ns1:alignment="middle center"
         inkscapeversion="0.92.2"
         ns1:jacobian_sqrt="0.352778"
         style="fill:#008000;fill-opacity:1"
         id="g5386">
        <g
           id="g5384"
           style="fill:#008000;fill-opacity:1">
          <g
             style="fill:#008000;fill-opacity:1"
             id="g5378">
            <path
               inkscape:connector-curvature="0"
               style="fill:#008000;fill-opacity:1;stroke:none;stroke-width:0"
               d="m 7.171875,-6.5625 c 0.015625,-0.046875 0.03125,-0.09375 0.03125,-0.15625 0,-0.09375 -0.046875,-0.09375 -0.25,-0.09375 H 2.75 c -0.234375,0 -0.25,0.015625 -0.3125,0.203125 L 1.890625,-4.8125 c -0.015625,0.046875 -0.03125,0.125 -0.03125,0.140625 0,0 0,0.109375 0.125,0.109375 0.09375,0 0.109375,-0.078125 0.125,-0.109375 C 2.5,-5.84375 3.015625,-6.5 4.5625,-6.5 h 1.625 L 0.625,-0.265625 c 0,0 -0.046875,0.140625 -0.046875,0.171875 C 0.578125,0 0.640625,0 0.828125,0 H 5.15625 c 0.25,0 0.25,-0.015625 0.3125,-0.203125 L 6.1875,-2.40625 c 0,-0.03125 0.03125,-0.109375 0.03125,-0.140625 0,-0.0625 -0.03125,-0.109375 -0.125,-0.109375 -0.09375,0 -0.109375,0.03125 -0.171875,0.25 C 5.484375,-1.0625 5,-0.34375 3.3125,-0.34375 H 1.609375 Z m 0,0"
               transform="translate(148.712,134.765)"
               id="path5376" />
          </g>
          <g
             style="fill:#008000;fill-opacity:1"
             id="g5382">
            <path
               inkscape:connector-curvature="0"
               style="fill:#008000;fill-opacity:1;stroke:none;stroke-width:0"
               d="m 2.328125,-4.4375 c 0,-0.1875 0,-0.1875 -0.203125,-0.1875 -0.453125,0.4375 -1.078125,0.4375 -1.359375,0.4375 v 0.25 c 0.15625,0 0.625,0 1,-0.1875 v 3.546875 c 0,0.234375 0,0.328125 -0.6875,0.328125 H 0.8125 V 0 c 0.125,0 0.984375,-0.03125 1.234375,-0.03125 0.21875,0 1.09375,0.03125 1.25,0.03125 V -0.25 H 3.03125 c -0.703125,0 -0.703125,-0.09375 -0.703125,-0.328125 z m 0,0"
               transform="translate(155.513,136.259)"
               id="path5380" />
          </g>
        </g>
      </g>
      <path
         sodipodi:nodetypes="cc"
         style="fill:none;stroke:#008000;stroke-width:0.26499999;stroke-linecap:butt;stroke-linejoin:miter;stroke-miterlimit:4;stroke-dasharray:none;stroke-opacity:1;marker-end:url(#marker4155-1)"
         d="M 61.736908,210.60452 V 191.68243"
         id="path4115-2"
         inkscape:connector-curvature="0" />
      <path
         sodipodi:nodetypes="cc"
         style="fill:none;stroke:#008000;stroke-width:0.26499999;stroke-linecap:butt;stroke-linejoin:miter;stroke-miterlimit:4;stroke-dasharray:none;stroke-opacity:1;marker-end:url(#marker4155-1-3)"
         d="M 61.718735,210.58842 V 172.69853"
         id="path4115-2-5"
         inkscape:connector-curvature="0" />
      <g
         id="g6770"
         style="fill:#008000;fill-opacity:1"
         ns1:jacobian_sqrt="0.352778"
         inkscapeversion="0.92.2"
         ns1:alignment="middle center"
         ns1:scale="1.00000008505"
         ns1:preamble="/Users/lafon/.config/inkscape/extensions/textext/preambule-inkscape.tex"
         ns1:text="$Z_2$"
         ns1:pdfconverter="pdf2svg"
         ns1:texconverter="pdflatex"
         ns1:version="0.9.0"
         transform="matrix(0.352778,0,0,0.352778,10.055674,125.77928)">
        <g
           style="fill:#008000;fill-opacity:1"
           id="g6768">
          <g
             id="g6762"
             style="fill:#008000;fill-opacity:1">
            <path
               id="path6760"
               transform="translate(148.712,134.765)"
               d="m 7.171875,-6.5625 c 0.015625,-0.046875 0.03125,-0.09375 0.03125,-0.15625 0,-0.09375 -0.046875,-0.09375 -0.25,-0.09375 H 2.75 c -0.234375,0 -0.25,0.015625 -0.3125,0.203125 L 1.890625,-4.8125 c -0.015625,0.046875 -0.03125,0.125 -0.03125,0.140625 0,0 0,0.109375 0.125,0.109375 0.09375,0 0.109375,-0.078125 0.125,-0.109375 C 2.5,-5.84375 3.015625,-6.5 4.5625,-6.5 h 1.625 L 0.625,-0.265625 c 0,0 -0.046875,0.140625 -0.046875,0.171875 C 0.578125,0 0.640625,0 0.828125,0 H 5.15625 c 0.25,0 0.25,-0.015625 0.3125,-0.203125 L 6.1875,-2.40625 c 0,-0.03125 0.03125,-0.109375 0.03125,-0.140625 0,-0.0625 -0.03125,-0.109375 -0.125,-0.109375 -0.09375,0 -0.109375,0.03125 -0.171875,0.25 C 5.484375,-1.0625 5,-0.34375 3.3125,-0.34375 H 1.609375 Z m 0,0"
               style="fill:#008000;fill-opacity:1;stroke:none;stroke-width:0"
               inkscape:connector-curvature="0" />
          </g>
          <g
             id="g6766"
             style="fill:#008000;fill-opacity:1">
            <path
               id="path6764"
               transform="translate(155.513,136.259)"
               d="M 3.515625,-1.265625 H 3.28125 c -0.015625,0.15625 -0.09375,0.5625 -0.1875,0.625 C 3.046875,-0.59375 2.515625,-0.59375 2.40625,-0.59375 H 1.125 c 0.734375,-0.640625 0.984375,-0.84375 1.390625,-1.171875 0.515625,-0.40625 1,-0.84375 1,-1.5 0,-0.84375 -0.734375,-1.359375 -1.625,-1.359375 -0.859375,0 -1.453125,0.609375 -1.453125,1.25 0,0.34375 0.296875,0.390625 0.375,0.390625 0.15625,0 0.359375,-0.125 0.359375,-0.375 0,-0.125 -0.046875,-0.375 -0.40625,-0.375 C 0.984375,-4.21875 1.453125,-4.375 1.78125,-4.375 c 0.703125,0 1.0625,0.546875 1.0625,1.109375 0,0.609375 -0.4375,1.078125 -0.65625,1.328125 L 0.515625,-0.265625 C 0.4375,-0.203125 0.4375,-0.1875 0.4375,0 h 2.875 z m 0,0"
               style="fill:#008000;fill-opacity:1;stroke:none;stroke-width:0"
               inkscape:connector-curvature="0" />
          </g>
        </g>
      </g>
      <path
         style="fill:none;stroke:#ff0000;stroke-width:0.565;stroke-linecap:butt;stroke-linejoin:miter;stroke-miterlimit:4;stroke-dasharray:none;stroke-opacity:1;marker-end:url(#marker6966)"
         d="m 61.718735,210.58842 6.893004,-10.21537"
         id="path6908"
         inkscape:connector-curvature="0"
         sodipodi:nodetypes="cc" />
      <g
         transform="matrix(0.352778,0,0,0.352778,17.153247,154.42055)"
         ns1:version="0.9.0"
         ns1:texconverter="pdflatex"
         ns1:pdfconverter="pdf2svg"
         ns1:text="$\\delta_{r1}$"
         ns1:preamble="/Users/lafon/.config/inkscape/extensions/textext/preambule-inkscape.tex"
         ns1:scale="1.00000002835"
         ns1:alignment="middle center"
         inkscapeversion="0.92.2"
         ns1:jacobian_sqrt="0.352778"
         style="fill:#ff0000;fill-opacity:1"
         id="g7235">
        <g
           id="g7233"
           style="fill:#ff0000;fill-opacity:1">
          <g
             style="fill:#ff0000;fill-opacity:1"
             id="g7223">
            <path
               inkscape:connector-curvature="0"
               style="fill:#ff0000;fill-opacity:1;stroke:none;stroke-width:0"
               d="M 2.625,-4.359375 C 1.390625,-4.0625 0.421875,-2.765625 0.421875,-1.5625 0.421875,-0.59375 1.0625,0.125 2,0.125 c 1.15625,0 1.984375,-1.578125 1.984375,-2.953125 0,-0.90625 -0.390625,-1.40625 -0.734375,-1.84375 C 2.890625,-5.125 2.296875,-5.875 2.296875,-6.3125 c 0,-0.21875 0.203125,-0.453125 0.546875,-0.453125 0.3125,0 0.5,0.125 0.71875,0.265625 0.203125,0.125 0.390625,0.25 0.546875,0.25 C 4.359375,-6.25 4.5,-6.484375 4.5,-6.65625 4.5,-6.875 4.34375,-6.890625 3.984375,-6.984375 3.46875,-7.09375 3.328125,-7.09375 3.171875,-7.09375 c -0.78125,0 -1.140625,0.4375 -1.140625,1.03125 0,0.546875 0.296875,1.09375 0.59375,1.703125 z m 0.125,0.21875 c 0.25,0.46875 0.546875,1 0.546875,1.71875 0,0.65625 -0.375,2.328125 -1.296875,2.328125 -0.546875,0 -0.96875,-0.421875 -0.96875,-1.1875 0,-0.625 0.375,-2.5 1.71875,-2.859375 z m 0,0"
               transform="translate(148.712,134.765)"
               id="path7221" />
          </g>
          <g
             style="fill:#ff0000;fill-opacity:1"
             id="g7227">
            <path
               inkscape:connector-curvature="0"
               style="fill:#ff0000;fill-opacity:1;stroke:none;stroke-width:0"
               d="m 1.640625,-1.40625 c 0,-0.046875 0.171875,-0.671875 0.171875,-0.703125 0.015625,-0.0625 0.21875,-0.40625 0.453125,-0.578125 0.0625,-0.046875 0.25,-0.1875 0.5625,-0.1875 0.0625,0 0.234375,0 0.375,0.09375 -0.21875,0.0625 -0.296875,0.265625 -0.296875,0.390625 0,0.140625 0.109375,0.25 0.265625,0.25 0.171875,0 0.390625,-0.125 0.390625,-0.421875 0,-0.359375 -0.375,-0.515625 -0.734375,-0.515625 -0.359375,0 -0.671875,0.15625 -0.984375,0.5 -0.125,-0.421875 -0.546875,-0.5 -0.71875,-0.5 -0.25,0 -0.421875,0.171875 -0.546875,0.359375 -0.15625,0.265625 -0.25,0.671875 -0.25,0.71875 0,0.078125 0.09375,0.078125 0.125,0.078125 0.09375,0 0.09375,-0.015625 0.140625,-0.203125 0.109375,-0.421875 0.25,-0.75 0.515625,-0.75 0.1875,0 0.234375,0.15625 0.234375,0.34375 0,0.125 -0.0625,0.390625 -0.125,0.578125 -0.046875,0.1875 -0.109375,0.46875 -0.140625,0.625 L 0.84375,-0.4375 C 0.828125,-0.34375 0.78125,-0.171875 0.78125,-0.15625 0.78125,0 0.90625,0.0625 1.015625,0.0625 1.125,0.0625 1.265625,0 1.3125,-0.125 1.328125,-0.171875 1.40625,-0.484375 1.453125,-0.65625 Z m 0,0"
               transform="translate(153.14,136.259)"
               id="path7225" />
          </g>
          <g
             style="fill:#ff0000;fill-opacity:1"
             id="g7231">
            <path
               inkscape:connector-curvature="0"
               style="fill:#ff0000;fill-opacity:1;stroke:none;stroke-width:0"
               d="m 2.328125,-4.4375 c 0,-0.1875 0,-0.1875 -0.203125,-0.1875 -0.453125,0.4375 -1.078125,0.4375 -1.359375,0.4375 v 0.25 c 0.15625,0 0.625,0 1,-0.1875 v 3.546875 c 0,0.234375 0,0.328125 -0.6875,0.328125 H 0.8125 V 0 c 0.125,0 0.984375,-0.03125 1.234375,-0.03125 0.21875,0 1.09375,0.03125 1.25,0.03125 V -0.25 H 3.03125 c -0.703125,0 -0.703125,-0.09375 -0.703125,-0.328125 z m 0,0"
               transform="translate(157.054,136.259)"
               id="path7229" />
          </g>
        </g>
      </g>
      <path
         style="fill:none;stroke:#ff0000;stroke-width:0.56500006;stroke-linecap:butt;stroke-linejoin:miter;stroke-miterlimit:4;stroke-dasharray:none;stroke-opacity:1;marker-end:url(#marker6966-6)"
         d="M 61.736908,210.60452 56.296764,194.3854"
         id="path6908-4"
         inkscape:connector-curvature="0"
         sodipodi:nodetypes="cc" />
      <g
         id="g8057"
         style="fill:#ff0000;fill-opacity:1"
         ns1:jacobian_sqrt="0.352778"
         inkscapeversion="0.92.2"
         ns1:alignment="middle center"
         ns1:scale="1.0000000567"
         ns1:preamble="/Users/lafon/.config/inkscape/extensions/textext/preambule-inkscape.tex"
         ns1:text="$\\delta_{r2}$"
         ns1:pdfconverter="pdf2svg"
         ns1:texconverter="pdflatex"
         ns1:version="0.9.0"
         transform="matrix(0.352778,0,0,0.352778,-1.984797,153.22485)">
        <g
           style="fill:#ff0000;fill-opacity:1"
           id="g8055">
          <g
             id="g8045"
             style="fill:#ff0000;fill-opacity:1">
            <path
               id="path8043"
               transform="translate(148.712,134.765)"
               d="M 2.625,-4.359375 C 1.390625,-4.0625 0.421875,-2.765625 0.421875,-1.5625 0.421875,-0.59375 1.0625,0.125 2,0.125 c 1.15625,0 1.984375,-1.578125 1.984375,-2.953125 0,-0.90625 -0.390625,-1.40625 -0.734375,-1.84375 C 2.890625,-5.125 2.296875,-5.875 2.296875,-6.3125 c 0,-0.21875 0.203125,-0.453125 0.546875,-0.453125 0.3125,0 0.5,0.125 0.71875,0.265625 0.203125,0.125 0.390625,0.25 0.546875,0.25 C 4.359375,-6.25 4.5,-6.484375 4.5,-6.65625 4.5,-6.875 4.34375,-6.890625 3.984375,-6.984375 3.46875,-7.09375 3.328125,-7.09375 3.171875,-7.09375 c -0.78125,0 -1.140625,0.4375 -1.140625,1.03125 0,0.546875 0.296875,1.09375 0.59375,1.703125 z m 0.125,0.21875 c 0.25,0.46875 0.546875,1 0.546875,1.71875 0,0.65625 -0.375,2.328125 -1.296875,2.328125 -0.546875,0 -0.96875,-0.421875 -0.96875,-1.1875 0,-0.625 0.375,-2.5 1.71875,-2.859375 z m 0,0"
               style="fill:#ff0000;fill-opacity:1;stroke:none;stroke-width:0"
               inkscape:connector-curvature="0" />
          </g>
          <g
             id="g8049"
             style="fill:#ff0000;fill-opacity:1">
            <path
               id="path8047"
               transform="translate(153.14,136.259)"
               d="m 1.640625,-1.40625 c 0,-0.046875 0.171875,-0.671875 0.171875,-0.703125 0.015625,-0.0625 0.21875,-0.40625 0.453125,-0.578125 0.0625,-0.046875 0.25,-0.1875 0.5625,-0.1875 0.0625,0 0.234375,0 0.375,0.09375 -0.21875,0.0625 -0.296875,0.265625 -0.296875,0.390625 0,0.140625 0.109375,0.25 0.265625,0.25 0.171875,0 0.390625,-0.125 0.390625,-0.421875 0,-0.359375 -0.375,-0.515625 -0.734375,-0.515625 -0.359375,0 -0.671875,0.15625 -0.984375,0.5 -0.125,-0.421875 -0.546875,-0.5 -0.71875,-0.5 -0.25,0 -0.421875,0.171875 -0.546875,0.359375 -0.15625,0.265625 -0.25,0.671875 -0.25,0.71875 0,0.078125 0.09375,0.078125 0.125,0.078125 0.09375,0 0.09375,-0.015625 0.140625,-0.203125 0.109375,-0.421875 0.25,-0.75 0.515625,-0.75 0.1875,0 0.234375,0.15625 0.234375,0.34375 0,0.125 -0.0625,0.390625 -0.125,0.578125 -0.046875,0.1875 -0.109375,0.46875 -0.140625,0.625 L 0.84375,-0.4375 C 0.828125,-0.34375 0.78125,-0.171875 0.78125,-0.15625 0.78125,0 0.90625,0.0625 1.015625,0.0625 1.125,0.0625 1.265625,0 1.3125,-0.125 1.328125,-0.171875 1.40625,-0.484375 1.453125,-0.65625 Z m 0,0"
               style="fill:#ff0000;fill-opacity:1;stroke:none;stroke-width:0"
               inkscape:connector-curvature="0" />
          </g>
          <g
             id="g8053"
             style="fill:#ff0000;fill-opacity:1">
            <path
               id="path8051"
               transform="translate(157.054,136.259)"
               d="M 3.515625,-1.265625 H 3.28125 c -0.015625,0.15625 -0.09375,0.5625 -0.1875,0.625 C 3.046875,-0.59375 2.515625,-0.59375 2.40625,-0.59375 H 1.125 c 0.734375,-0.640625 0.984375,-0.84375 1.390625,-1.171875 0.515625,-0.40625 1,-0.84375 1,-1.5 0,-0.84375 -0.734375,-1.359375 -1.625,-1.359375 -0.859375,0 -1.453125,0.609375 -1.453125,1.25 0,0.34375 0.296875,0.390625 0.375,0.390625 0.15625,0 0.359375,-0.125 0.359375,-0.375 0,-0.125 -0.046875,-0.375 -0.40625,-0.375 C 0.984375,-4.21875 1.453125,-4.375 1.78125,-4.375 c 0.703125,0 1.0625,0.546875 1.0625,1.109375 0,0.609375 -0.4375,1.078125 -0.65625,1.328125 L 0.515625,-0.265625 C 0.4375,-0.203125 0.4375,-0.1875 0.4375,0 h 2.875 z m 0,0"
               style="fill:#ff0000;fill-opacity:1;stroke:none;stroke-width:0"
               inkscape:connector-curvature="0" />
          </g>
        </g>
      </g>
      <rect
         style="opacity:1;vector-effect:none;fill:none;fill-opacity:1;fill-rule:nonzero;stroke:#000000;stroke-width:0.07791185;stroke-linecap:butt;stroke-linejoin:miter;stroke-miterlimit:4;stroke-dasharray:0.62329477, 0.15582369, 0.07791186, 0.15582369;stroke-dashoffset:0;stroke-opacity:1;paint-order:markers fill stroke"
         id="rect1517-5"
         width="7.0942612"
         height="10.530013"
         x="61.684471"
         y="200.0034"
         ry="0" />
      <g
         id="g8779"
         style="fill:#000000;fill-opacity:1"
         ns1:jacobian_sqrt="0.282222"
         inkscapeversion="0.92.2"
         ns1:alignment="middle center"
         ns1:scale="0.8"
         ns1:preamble="/Users/lafon/.config/inkscape/extensions/textext/preambule-inkscape.tex"
         ns1:text="$\\delta_{x1}$"
         ns1:pdfconverter="pdf2svg"
         ns1:texconverter="pdflatex"
         ns1:version="0.9.0"
         transform="matrix(0.282222,0,0,0.282222,24.038911,176.52476)">
        <g
           style="fill:#000000;fill-opacity:1"
           id="g8777">
          <g
             id="g8767"
             style="fill:#000000;fill-opacity:1">
            <path
               id="path8765"
               transform="translate(148.712,134.765)"
               d="M 2.625,-4.359375 C 1.390625,-4.0625 0.421875,-2.765625 0.421875,-1.5625 0.421875,-0.59375 1.0625,0.125 2,0.125 c 1.15625,0 1.984375,-1.578125 1.984375,-2.953125 0,-0.90625 -0.390625,-1.40625 -0.734375,-1.84375 C 2.890625,-5.125 2.296875,-5.875 2.296875,-6.3125 c 0,-0.21875 0.203125,-0.453125 0.546875,-0.453125 0.3125,0 0.5,0.125 0.71875,0.265625 0.203125,0.125 0.390625,0.25 0.546875,0.25 C 4.359375,-6.25 4.5,-6.484375 4.5,-6.65625 4.5,-6.875 4.34375,-6.890625 3.984375,-6.984375 3.46875,-7.09375 3.328125,-7.09375 3.171875,-7.09375 c -0.78125,0 -1.140625,0.4375 -1.140625,1.03125 0,0.546875 0.296875,1.09375 0.59375,1.703125 z m 0.125,0.21875 c 0.25,0.46875 0.546875,1 0.546875,1.71875 0,0.65625 -0.375,2.328125 -1.296875,2.328125 -0.546875,0 -0.96875,-0.421875 -0.96875,-1.1875 0,-0.625 0.375,-2.5 1.71875,-2.859375 z m 0,0"
               style="fill:#000000;fill-opacity:1;stroke:none;stroke-width:0"
               inkscape:connector-curvature="0" />
          </g>
          <g
             id="g8771"
             style="fill:#000000;fill-opacity:1">
            <path
               id="path8769"
               transform="translate(153.14,136.259)"
               d="M 1.734375,-0.734375 C 1.671875,-0.5 1.4375,-0.125 1.078125,-0.125 c -0.015625,0 -0.234375,0 -0.375,-0.09375 0.28125,-0.09375 0.3125,-0.34375 0.3125,-0.390625 0,-0.15625 -0.125,-0.25 -0.28125,-0.25 -0.203125,0 -0.40625,0.15625 -0.40625,0.421875 0,0.34375 0.390625,0.5 0.734375,0.5 0.328125,0 0.609375,-0.1875 0.78125,-0.484375 C 2.015625,-0.0625 2.390625,0.0625 2.671875,0.0625 c 0.8125,0 1.234375,-0.859375 1.234375,-1.0625 0,-0.09375 -0.09375,-0.09375 -0.109375,-0.09375 -0.109375,0 -0.109375,0.046875 -0.140625,0.125 -0.140625,0.484375 -0.5625,0.84375 -0.953125,0.84375 -0.28125,0 -0.421875,-0.1875 -0.421875,-0.453125 0,-0.1875 0.171875,-0.8125 0.359375,-1.59375 C 2.78125,-2.703125 3.09375,-2.875 3.328125,-2.875 c 0.015625,0 0.21875,0 0.375,0.09375 -0.21875,0.0625 -0.3125,0.265625 -0.3125,0.390625 0,0.140625 0.125,0.25 0.28125,0.25 0.15625,0 0.390625,-0.125 0.390625,-0.421875 0,-0.390625 -0.453125,-0.515625 -0.71875,-0.515625 -0.359375,0 -0.640625,0.234375 -0.78125,0.5 -0.125,-0.28125 -0.453125,-0.5 -0.84375,-0.5 C 0.9375,-3.078125 0.5,-2.21875 0.5,-2 c 0,0.078125 0.09375,0.078125 0.109375,0.078125 0.09375,0 0.09375,-0.015625 0.140625,-0.109375 C 0.921875,-2.578125 1.359375,-2.875 1.703125,-2.875 1.9375,-2.875 2.125,-2.75 2.125,-2.421875 2.125,-2.28125 2.03125,-1.9375 1.96875,-1.6875 Z m 0,0"
               style="fill:#000000;fill-opacity:1;stroke:none;stroke-width:0"
               inkscape:connector-curvature="0" />
          </g>
          <g
             id="g8775"
             style="fill:#000000;fill-opacity:1">
            <path
               id="path8773"
               transform="translate(157.658,136.259)"
               d="m 2.328125,-4.4375 c 0,-0.1875 0,-0.1875 -0.203125,-0.1875 -0.453125,0.4375 -1.078125,0.4375 -1.359375,0.4375 v 0.25 c 0.15625,0 0.625,0 1,-0.1875 v 3.546875 c 0,0.234375 0,0.328125 -0.6875,0.328125 H 0.8125 V 0 c 0.125,0 0.984375,-0.03125 1.234375,-0.03125 0.21875,0 1.09375,0.03125 1.25,0.03125 V -0.25 H 3.03125 c -0.703125,0 -0.703125,-0.09375 -0.703125,-0.328125 z m 0,0"
               style="fill:#000000;fill-opacity:1;stroke:none;stroke-width:0"
               inkscape:connector-curvature="0" />
          </g>
        </g>
      </g>
      <g
         transform="matrix(0.282222,0,0,0.282222,21.055231,161.02165)"
         ns1:version="0.9.0"
         ns1:texconverter="pdflatex"
         ns1:pdfconverter="pdf2svg"
         ns1:text="$\\delta_{z1}$"
         ns1:preamble="/Users/lafon/.config/inkscape/extensions/textext/preambule-inkscape.tex"
         ns1:scale="0.799999971654"
         ns1:alignment="middle center"
         inkscapeversion="0.92.2"
         ns1:jacobian_sqrt="0.282222"
         style="fill:#000000;fill-opacity:1"
         id="g9163">
        <g
           id="g9161"
           style="fill:#000000;fill-opacity:1">
          <g
             style="fill:#000000;fill-opacity:1"
             id="g9151">
            <path
               inkscape:connector-curvature="0"
               style="fill:#000000;fill-opacity:1;stroke:none;stroke-width:0"
               d="M 2.625,-4.359375 C 1.390625,-4.0625 0.421875,-2.765625 0.421875,-1.5625 0.421875,-0.59375 1.0625,0.125 2,0.125 c 1.15625,0 1.984375,-1.578125 1.984375,-2.953125 0,-0.90625 -0.390625,-1.40625 -0.734375,-1.84375 C 2.890625,-5.125 2.296875,-5.875 2.296875,-6.3125 c 0,-0.21875 0.203125,-0.453125 0.546875,-0.453125 0.3125,0 0.5,0.125 0.71875,0.265625 0.203125,0.125 0.390625,0.25 0.546875,0.25 C 4.359375,-6.25 4.5,-6.484375 4.5,-6.65625 4.5,-6.875 4.34375,-6.890625 3.984375,-6.984375 3.46875,-7.09375 3.328125,-7.09375 3.171875,-7.09375 c -0.78125,0 -1.140625,0.4375 -1.140625,1.03125 0,0.546875 0.296875,1.09375 0.59375,1.703125 z m 0.125,0.21875 c 0.25,0.46875 0.546875,1 0.546875,1.71875 0,0.65625 -0.375,2.328125 -1.296875,2.328125 -0.546875,0 -0.96875,-0.421875 -0.96875,-1.1875 0,-0.625 0.375,-2.5 1.71875,-2.859375 z m 0,0"
               transform="translate(148.712,134.765)"
               id="path9149" />
          </g>
          <g
             style="fill:#000000;fill-opacity:1"
             id="g9155">
            <path
               inkscape:connector-curvature="0"
               style="fill:#000000;fill-opacity:1;stroke:none;stroke-width:0"
               d="m 1.171875,-0.609375 c 0.1875,-0.1875 0.3125,-0.3125 0.890625,-0.796875 0.15625,-0.109375 0.671875,-0.53125 0.875,-0.71875 0.421875,-0.421875 0.6875,-0.78125 0.6875,-0.859375 0,-0.09375 -0.078125,-0.09375 -0.109375,-0.09375 -0.0625,0 -0.09375,0.015625 -0.125,0.078125 -0.21875,0.3125 -0.359375,0.421875 -0.53125,0.421875 -0.078125,0 -0.1875,0 -0.390625,-0.203125 -0.234375,-0.25 -0.390625,-0.296875 -0.546875,-0.296875 -0.5625,0 -0.9375,0.609375 -0.9375,0.8125 0,0.078125 0.0625,0.09375 0.109375,0.09375 0.09375,0 0.109375,-0.015625 0.125,-0.09375 0.109375,-0.25 0.5,-0.265625 0.609375,-0.265625 0.171875,0 0.34375,0.046875 0.4375,0.0625 0.390625,0.078125 0.4375,0.078125 0.609375,0.078125 -0.171875,0.203125 -0.296875,0.328125 -0.96875,0.84375 -0.546875,0.4375 -0.734375,0.609375 -0.859375,0.75 -0.421875,0.40625 -0.625,0.71875 -0.625,0.78125 0,0.078125 0.09375,0.078125 0.125,0.078125 0.0625,0 0.078125,0 0.109375,-0.0625 0.1875,-0.265625 0.40625,-0.421875 0.640625,-0.421875 0.09375,0 0.1875,0 0.375,0.171875 0.21875,0.21875 0.359375,0.3125 0.59375,0.3125 C 3,0.0625 3.46875,-0.78125 3.46875,-1.015625 3.46875,-1.09375 3.390625,-1.09375 3.359375,-1.09375 3.265625,-1.09375 3.25,-1.0625 3.21875,-0.984375 3.09375,-0.640625 2.6875,-0.46875 2.34375,-0.46875 2.1875,-0.46875 2,-0.515625 1.828125,-0.546875 1.515625,-0.625 1.453125,-0.625 1.328125,-0.625 c -0.015625,0 -0.109375,0 -0.15625,0.015625 z m 0,0"
               transform="translate(153.14,136.259)"
               id="path9153" />
          </g>
          <g
             style="fill:#000000;fill-opacity:1"
             id="g9159">
            <path
               inkscape:connector-curvature="0"
               style="fill:#000000;fill-opacity:1;stroke:none;stroke-width:0"
               d="m 2.328125,-4.4375 c 0,-0.1875 0,-0.1875 -0.203125,-0.1875 -0.453125,0.4375 -1.078125,0.4375 -1.359375,0.4375 v 0.25 c 0.15625,0 0.625,0 1,-0.1875 v 3.546875 c 0,0.234375 0,0.328125 -0.6875,0.328125 H 0.8125 V 0 c 0.125,0 0.984375,-0.03125 1.234375,-0.03125 0.21875,0 1.09375,0.03125 1.25,0.03125 V -0.25 H 3.03125 c -0.703125,0 -0.703125,-0.09375 -0.703125,-0.328125 z m 0,0"
               transform="translate(157.232,136.259)"
               id="path9157" />
          </g>
        </g>
      </g>
      <g
         id="g9579"
         style="fill:#000000;fill-opacity:1"
         ns1:jacobian_sqrt="0.282222"
         inkscapeversion="0.92.2"
         ns1:alignment="middle center"
         ns1:scale="0.799999971654"
         ns1:preamble="/Users/lafon/.config/inkscape/extensions/textext/preambule-inkscape.tex"
         ns1:text="$\\delta_{x2}$"
         ns1:pdfconverter="pdf2svg"
         ns1:texconverter="pdflatex"
         ns1:version="0.9.0"
         transform="matrix(0.282222,0,0,0.282222,13.026099,175.6359)">
        <g
           style="fill:#000000;fill-opacity:1"
           id="g9577">
          <g
             id="g9567"
             style="fill:#000000;fill-opacity:1">
            <path
               id="path9565"
               transform="translate(148.712,134.765)"
               d="M 2.625,-4.359375 C 1.390625,-4.0625 0.421875,-2.765625 0.421875,-1.5625 0.421875,-0.59375 1.0625,0.125 2,0.125 c 1.15625,0 1.984375,-1.578125 1.984375,-2.953125 0,-0.90625 -0.390625,-1.40625 -0.734375,-1.84375 C 2.890625,-5.125 2.296875,-5.875 2.296875,-6.3125 c 0,-0.21875 0.203125,-0.453125 0.546875,-0.453125 0.3125,0 0.5,0.125 0.71875,0.265625 0.203125,0.125 0.390625,0.25 0.546875,0.25 C 4.359375,-6.25 4.5,-6.484375 4.5,-6.65625 4.5,-6.875 4.34375,-6.890625 3.984375,-6.984375 3.46875,-7.09375 3.328125,-7.09375 3.171875,-7.09375 c -0.78125,0 -1.140625,0.4375 -1.140625,1.03125 0,0.546875 0.296875,1.09375 0.59375,1.703125 z m 0.125,0.21875 c 0.25,0.46875 0.546875,1 0.546875,1.71875 0,0.65625 -0.375,2.328125 -1.296875,2.328125 -0.546875,0 -0.96875,-0.421875 -0.96875,-1.1875 0,-0.625 0.375,-2.5 1.71875,-2.859375 z m 0,0"
               style="fill:#000000;fill-opacity:1;stroke:none;stroke-width:0"
               inkscape:connector-curvature="0" />
          </g>
          <g
             id="g9571"
             style="fill:#000000;fill-opacity:1">
            <path
               id="path9569"
               transform="translate(153.14,136.259)"
               d="M 1.734375,-0.734375 C 1.671875,-0.5 1.4375,-0.125 1.078125,-0.125 c -0.015625,0 -0.234375,0 -0.375,-0.09375 0.28125,-0.09375 0.3125,-0.34375 0.3125,-0.390625 0,-0.15625 -0.125,-0.25 -0.28125,-0.25 -0.203125,0 -0.40625,0.15625 -0.40625,0.421875 0,0.34375 0.390625,0.5 0.734375,0.5 0.328125,0 0.609375,-0.1875 0.78125,-0.484375 C 2.015625,-0.0625 2.390625,0.0625 2.671875,0.0625 c 0.8125,0 1.234375,-0.859375 1.234375,-1.0625 0,-0.09375 -0.09375,-0.09375 -0.109375,-0.09375 -0.109375,0 -0.109375,0.046875 -0.140625,0.125 -0.140625,0.484375 -0.5625,0.84375 -0.953125,0.84375 -0.28125,0 -0.421875,-0.1875 -0.421875,-0.453125 0,-0.1875 0.171875,-0.8125 0.359375,-1.59375 C 2.78125,-2.703125 3.09375,-2.875 3.328125,-2.875 c 0.015625,0 0.21875,0 0.375,0.09375 -0.21875,0.0625 -0.3125,0.265625 -0.3125,0.390625 0,0.140625 0.125,0.25 0.28125,0.25 0.15625,0 0.390625,-0.125 0.390625,-0.421875 0,-0.390625 -0.453125,-0.515625 -0.71875,-0.515625 -0.359375,0 -0.640625,0.234375 -0.78125,0.5 -0.125,-0.28125 -0.453125,-0.5 -0.84375,-0.5 C 0.9375,-3.078125 0.5,-2.21875 0.5,-2 c 0,0.078125 0.09375,0.078125 0.109375,0.078125 0.09375,0 0.09375,-0.015625 0.140625,-0.109375 C 0.921875,-2.578125 1.359375,-2.875 1.703125,-2.875 1.9375,-2.875 2.125,-2.75 2.125,-2.421875 2.125,-2.28125 2.03125,-1.9375 1.96875,-1.6875 Z m 0,0"
               style="fill:#000000;fill-opacity:1;stroke:none;stroke-width:0"
               inkscape:connector-curvature="0" />
          </g>
          <g
             id="g9575"
             style="fill:#000000;fill-opacity:1">
            <path
               id="path9573"
               transform="translate(157.658,136.259)"
               d="M 3.515625,-1.265625 H 3.28125 c -0.015625,0.15625 -0.09375,0.5625 -0.1875,0.625 C 3.046875,-0.59375 2.515625,-0.59375 2.40625,-0.59375 H 1.125 c 0.734375,-0.640625 0.984375,-0.84375 1.390625,-1.171875 0.515625,-0.40625 1,-0.84375 1,-1.5 0,-0.84375 -0.734375,-1.359375 -1.625,-1.359375 -0.859375,0 -1.453125,0.609375 -1.453125,1.25 0,0.34375 0.296875,0.390625 0.375,0.390625 0.15625,0 0.359375,-0.125 0.359375,-0.375 0,-0.125 -0.046875,-0.375 -0.40625,-0.375 C 0.984375,-4.21875 1.453125,-4.375 1.78125,-4.375 c 0.703125,0 1.0625,0.546875 1.0625,1.109375 0,0.609375 -0.4375,1.078125 -0.65625,1.328125 L 0.515625,-0.265625 C 0.4375,-0.203125 0.4375,-0.1875 0.4375,0 h 2.875 z m 0,0"
               style="fill:#000000;fill-opacity:1;stroke:none;stroke-width:0"
               inkscape:connector-curvature="0" />
          </g>
        </g>
      </g>
      <g
         transform="matrix(0.282222,0,0,0.282222,15.138357,155.40365)"
         ns1:version="0.9.0"
         ns1:texconverter="pdflatex"
         ns1:pdfconverter="pdf2svg"
         ns1:text="$\\delta_{z2}$"
         ns1:preamble="/Users/lafon/.config/inkscape/extensions/textext/preambule-inkscape.tex"
         ns1:scale="0.799999943308"
         ns1:alignment="middle center"
         inkscapeversion="0.92.2"
         ns1:jacobian_sqrt="0.282222"
         style="fill:#000000;fill-opacity:1"
         id="g9997">
        <g
           id="g9995"
           style="fill:#000000;fill-opacity:1">
          <g
             style="fill:#000000;fill-opacity:1"
             id="g9985">
            <path
               inkscape:connector-curvature="0"
               style="fill:#000000;fill-opacity:1;stroke:none;stroke-width:0"
               d="M 2.625,-4.359375 C 1.390625,-4.0625 0.421875,-2.765625 0.421875,-1.5625 0.421875,-0.59375 1.0625,0.125 2,0.125 c 1.15625,0 1.984375,-1.578125 1.984375,-2.953125 0,-0.90625 -0.390625,-1.40625 -0.734375,-1.84375 C 2.890625,-5.125 2.296875,-5.875 2.296875,-6.3125 c 0,-0.21875 0.203125,-0.453125 0.546875,-0.453125 0.3125,0 0.5,0.125 0.71875,0.265625 0.203125,0.125 0.390625,0.25 0.546875,0.25 C 4.359375,-6.25 4.5,-6.484375 4.5,-6.65625 4.5,-6.875 4.34375,-6.890625 3.984375,-6.984375 3.46875,-7.09375 3.328125,-7.09375 3.171875,-7.09375 c -0.78125,0 -1.140625,0.4375 -1.140625,1.03125 0,0.546875 0.296875,1.09375 0.59375,1.703125 z m 0.125,0.21875 c 0.25,0.46875 0.546875,1 0.546875,1.71875 0,0.65625 -0.375,2.328125 -1.296875,2.328125 -0.546875,0 -0.96875,-0.421875 -0.96875,-1.1875 0,-0.625 0.375,-2.5 1.71875,-2.859375 z m 0,0"
               transform="translate(148.712,134.765)"
               id="path9983" />
          </g>
          <g
             style="fill:#000000;fill-opacity:1"
             id="g9989">
            <path
               inkscape:connector-curvature="0"
               style="fill:#000000;fill-opacity:1;stroke:none;stroke-width:0"
               d="m 1.171875,-0.609375 c 0.1875,-0.1875 0.3125,-0.3125 0.890625,-0.796875 0.15625,-0.109375 0.671875,-0.53125 0.875,-0.71875 0.421875,-0.421875 0.6875,-0.78125 0.6875,-0.859375 0,-0.09375 -0.078125,-0.09375 -0.109375,-0.09375 -0.0625,0 -0.09375,0.015625 -0.125,0.078125 -0.21875,0.3125 -0.359375,0.421875 -0.53125,0.421875 -0.078125,0 -0.1875,0 -0.390625,-0.203125 -0.234375,-0.25 -0.390625,-0.296875 -0.546875,-0.296875 -0.5625,0 -0.9375,0.609375 -0.9375,0.8125 0,0.078125 0.0625,0.09375 0.109375,0.09375 0.09375,0 0.109375,-0.015625 0.125,-0.09375 0.109375,-0.25 0.5,-0.265625 0.609375,-0.265625 0.171875,0 0.34375,0.046875 0.4375,0.0625 0.390625,0.078125 0.4375,0.078125 0.609375,0.078125 -0.171875,0.203125 -0.296875,0.328125 -0.96875,0.84375 -0.546875,0.4375 -0.734375,0.609375 -0.859375,0.75 -0.421875,0.40625 -0.625,0.71875 -0.625,0.78125 0,0.078125 0.09375,0.078125 0.125,0.078125 0.0625,0 0.078125,0 0.109375,-0.0625 0.1875,-0.265625 0.40625,-0.421875 0.640625,-0.421875 0.09375,0 0.1875,0 0.375,0.171875 0.21875,0.21875 0.359375,0.3125 0.59375,0.3125 C 3,0.0625 3.46875,-0.78125 3.46875,-1.015625 3.46875,-1.09375 3.390625,-1.09375 3.359375,-1.09375 3.265625,-1.09375 3.25,-1.0625 3.21875,-0.984375 3.09375,-0.640625 2.6875,-0.46875 2.34375,-0.46875 2.1875,-0.46875 2,-0.515625 1.828125,-0.546875 1.515625,-0.625 1.453125,-0.625 1.328125,-0.625 c -0.015625,0 -0.109375,0 -0.15625,0.015625 z m 0,0"
               transform="translate(153.14,136.259)"
               id="path9987" />
          </g>
          <g
             style="fill:#000000;fill-opacity:1"
             id="g9993">
            <path
               inkscape:connector-curvature="0"
               style="fill:#000000;fill-opacity:1;stroke:none;stroke-width:0"
               d="M 3.515625,-1.265625 H 3.28125 c -0.015625,0.15625 -0.09375,0.5625 -0.1875,0.625 C 3.046875,-0.59375 2.515625,-0.59375 2.40625,-0.59375 H 1.125 c 0.734375,-0.640625 0.984375,-0.84375 1.390625,-1.171875 0.515625,-0.40625 1,-0.84375 1,-1.5 0,-0.84375 -0.734375,-1.359375 -1.625,-1.359375 -0.859375,0 -1.453125,0.609375 -1.453125,1.25 0,0.34375 0.296875,0.390625 0.375,0.390625 0.15625,0 0.359375,-0.125 0.359375,-0.375 0,-0.125 -0.046875,-0.375 -0.40625,-0.375 C 0.984375,-4.21875 1.453125,-4.375 1.78125,-4.375 c 0.703125,0 1.0625,0.546875 1.0625,1.109375 0,0.609375 -0.4375,1.078125 -0.65625,1.328125 L 0.515625,-0.265625 C 0.4375,-0.203125 0.4375,-0.1875 0.4375,0 h 2.875 z m 0,0"
               transform="translate(157.232,136.259)"
               id="path9991" />
          </g>
        </g>
      </g>
    </g>
  </g>
</svg>
